<?xml version="1.0" encoding="UTF-8"?>
<svg xmlns="http://www.w3.org/2000/svg" xmlns:xlink="http://www.w3.org/1999/xlink" width="50px" height="49px" viewBox="0 0 50 49" version="1.1">
<g id="surface1">
<path style=" stroke:none;fill-rule:evenodd;fill:rgb(96.862745%,5.098039%,1.960784%);fill-opacity:1;" d="M 16.316406 3.066406 C 16.027344 3.3125 15.855469 3.515625 15.566406 3.945312 C 15.460938 4.105469 15.359375 4.25 15.34375 4.261719 C 15.332031 4.277344 15.246094 4.402344 15.15625 4.546875 C 15.019531 4.765625 14.613281 5.34375 14.476562 5.511719 C 14.457031 5.539062 14.386719 5.648438 14.320312 5.757812 C 14.253906 5.867188 14.183594 5.976562 14.164062 6.003906 C 14.046875 6.152344 13.691406 6.664062 13.59375 6.824219 C 13.414062 7.117188 13.585938 7.109375 9.71875 7.074219 C 7.199219 7.054688 6.03125 7.058594 5.792969 7.097656 C 5.117188 7.207031 4.417969 7.363281 4.261719 7.445312 C 4.214844 7.46875 4.0625 7.535156 3.917969 7.59375 C 3.15625 7.902344 2.417969 8.511719 1.800781 9.34375 C 1.617188 9.589844 1.464844 9.804688 1.464844 9.816406 C 1.464844 9.832031 1.367188 10.046875 1.25 10.300781 C 0.546875 11.769531 0.578125 11.152344 0.597656 23.59375 C 0.613281 35.257812 0.59375 34.519531 0.929688 35.722656 C 1.574219 38.050781 3.589844 39.765625 5.71875 39.792969 C 6.835938 39.804688 6.875 39.839844 6.898438 40.8125 C 6.933594 42.277344 7.796875 43.054688 8.988281 42.695312 C 9.8125 42.445312 10.164062 41.832031 10.164062 40.636719 C 10.167969 39.894531 10.304688 39.703125 10.695312 39.90625 C 10.953125 40.039062 10.949219 40 10.949219 42.84375 L 10.949219 45.511719 L 11.136719 45.707031 C 11.390625 45.964844 11.640625 46.015625 11.9375 45.867188 C 12.367188 45.65625 12.339844 45.847656 12.351562 42.851562 C 12.367188 39.804688 12.371094 39.789062 12.898438 39.789062 C 13.382812 39.789062 13.390625 39.851562 13.390625 43.9375 C 13.390625 47.199219 13.398438 47.484375 13.476562 47.660156 C 14.144531 49.140625 16.078125 49.011719 16.542969 47.457031 C 16.605469 47.246094 16.617188 46.414062 16.617188 41.207031 C 16.617188 36.601562 16.632812 35.1875 16.675781 35.144531 C 16.710938 35.109375 16.714844 35.085938 16.683594 35.085938 C 16.523438 35.085938 14.96875 33.738281 14.417969 33.125 C 14.296875 32.988281 14.171875 32.851562 14.050781 32.714844 C 14.023438 32.683594 13.914062 32.546875 13.804688 32.414062 C 13.699219 32.28125 13.601562 32.15625 13.585938 32.144531 C 13.136719 31.734375 11.96875 29.703125 11.558594 28.617188 C 11.515625 28.507812 11.476562 28.402344 11.433594 28.296875 C 11.230469 27.828125 10.753906 26.070312 10.753906 25.796875 C 10.753906 25.710938 10.730469 25.578125 10.707031 25.5 C 10.527344 24.9375 10.472656 23.046875 10.605469 21.828125 C 10.75 20.515625 10.804688 20.25 11.214844 18.867188 C 11.324219 18.492188 11.539062 17.914062 11.585938 17.863281 C 11.613281 17.835938 11.632812 17.789062 11.632812 17.753906 C 11.632812 17.691406 12.03125 16.800781 12.121094 16.660156 C 12.148438 16.621094 12.199219 16.519531 12.242188 16.441406 C 12.28125 16.359375 12.378906 16.183594 12.460938 16.046875 C 12.542969 15.914062 12.625 15.769531 12.644531 15.730469 C 12.695312 15.617188 13.335938 14.6875 13.496094 14.484375 C 14.203125 13.605469 14.398438 13.390625 15.082031 12.738281 C 15.511719 12.328125 16.304688 11.671875 16.59375 11.492188 C 16.675781 11.441406 16.710938 11.390625 16.679688 11.378906 C 16.632812 11.363281 16.617188 10.433594 16.617188 7.125 C 16.617188 4.628906 16.601562 2.890625 16.574219 2.890625 C 16.550781 2.890625 16.433594 2.972656 16.316406 3.066406 M 9.019531 12.835938 C 10.050781 13.28125 10.015625 14.742188 8.964844 15.140625 C 8.113281 15.460938 7.308594 14.898438 7.308594 13.988281 C 7.308594 13.042969 8.160156 12.46875 9.019531 12.835938 "/>
<path style=" stroke:none;fill-rule:evenodd;fill:rgb(1.960784%,1.960784%,1.960784%);fill-opacity:1;" d="M 41.578125 7.136719 C 41.527344 7.1875 41.539062 40.023438 41.589844 40.054688 C 41.613281 40.070312 41.65625 40.050781 41.691406 40.007812 C 42.046875 39.578125 42.816406 39.808594 42.886719 40.371094 C 42.972656 41.042969 43.011719 41.179688 43.144531 41.320312 C 43.574219 41.773438 44.300781 41.695312 44.59375 41.167969 C 44.660156 41.050781 44.691406 40.871094 44.707031 40.554688 C 44.734375 39.945312 44.949219 39.59375 45.296875 39.59375 C 45.351562 39.59375 45.410156 39.574219 45.425781 39.550781 C 45.441406 39.523438 45.535156 39.492188 45.632812 39.472656 C 45.730469 39.453125 45.84375 39.417969 45.886719 39.394531 C 45.933594 39.371094 46.121094 39.28125 46.304688 39.191406 C 47.25 38.742188 48.136719 37.828125 48.597656 36.824219 C 48.648438 36.714844 48.71875 36.566406 48.757812 36.488281 C 48.796875 36.414062 48.828125 36.320312 48.828125 36.28125 C 48.828125 36.246094 48.859375 36.140625 48.894531 36.054688 C 48.976562 35.863281 49.09375 35.339844 49.195312 34.695312 C 49.324219 33.871094 49.300781 12.746094 49.167969 12.023438 C 49.035156 11.277344 48.929688 10.921875 48.671875 10.351562 C 48.59375 10.183594 48.535156 10.023438 48.535156 9.996094 C 48.535156 9.96875 48.511719 9.945312 48.488281 9.945312 C 48.464844 9.945312 48.425781 9.898438 48.410156 9.835938 C 48.390625 9.777344 48.359375 9.714844 48.339844 9.703125 C 48.324219 9.6875 48.253906 9.589844 48.191406 9.480469 C 47.890625 8.984375 46.800781 7.9375 46.585938 7.9375 C 46.558594 7.9375 46.53125 7.921875 46.523438 7.902344 C 46.5 7.851562 45.765625 7.496094 45.683594 7.496094 C 45.648438 7.496094 45.601562 7.480469 45.582031 7.460938 C 45.53125 7.410156 45.15625 7.316406 44.574219 7.203125 C 44.058594 7.105469 41.660156 7.054688 41.578125 7.136719 M 24.390625 8.820312 C 23.707031 8.855469 23.007812 8.933594 22.238281 9.058594 C 21.875 9.121094 20.890625 9.382812 20.382812 9.554688 C 19.929688 9.707031 19.773438 9.769531 19.183594 10.019531 C 17.753906 10.632812 16.226562 11.644531 15.082031 12.738281 C 14.398438 13.390625 14.203125 13.605469 13.496094 14.484375 C 13.335938 14.6875 12.695312 15.617188 12.644531 15.730469 C 12.625 15.769531 12.542969 15.914062 12.460938 16.046875 C 12.378906 16.183594 12.28125 16.359375 12.242188 16.441406 C 12.199219 16.519531 12.148438 16.621094 12.121094 16.660156 C 12.03125 16.800781 11.632812 17.691406 11.632812 17.753906 C 11.632812 17.789062 11.613281 17.835938 11.585938 17.863281 C 11.539062 17.914062 11.324219 18.492188 11.214844 18.867188 C 10.804688 20.25 10.75 20.515625 10.605469 21.828125 C 10.472656 23.046875 10.527344 24.9375 10.707031 25.5 C 10.730469 25.578125 10.753906 25.710938 10.753906 25.796875 C 10.753906 26.070312 11.230469 27.828125 11.433594 28.296875 C 11.457031 28.351562 11.511719 28.496094 11.558594 28.617188 C 11.96875 29.703125 13.136719 31.734375 13.585938 32.144531 C 13.601562 32.15625 13.699219 32.28125 13.804688 32.414062 C 13.914062 32.546875 14.023438 32.683594 14.050781 32.714844 C 14.078125 32.746094 14.242188 32.929688 14.417969 33.125 C 14.828125 33.582031 15.675781 34.351562 16.253906 34.789062 C 17.449219 35.695312 18.699219 36.355469 20.382812 36.96875 C 20.882812 37.152344 21.554688 37.320312 22.628906 37.53125 C 24.117188 37.824219 26.789062 37.761719 28.035156 37.410156 C 28.171875 37.371094 28.320312 37.339844 28.367188 37.339844 C 28.453125 37.339844 28.539062 37.3125 29.324219 37.066406 C 30.699219 36.636719 32.851562 35.527344 33.609375 34.859375 C 33.679688 34.800781 33.75 34.742188 33.824219 34.691406 C 33.886719 34.652344 34.015625 34.550781 34.113281 34.46875 C 34.207031 34.386719 34.363281 34.253906 34.457031 34.175781 C 34.734375 33.945312 35.640625 33.023438 35.851562 32.761719 C 35.960938 32.628906 36.066406 32.496094 36.09375 32.46875 C 37.074219 31.402344 38.449219 28.828125 38.804688 27.394531 C 38.828125 27.300781 38.902344 27.011719 38.96875 26.753906 C 39.519531 24.621094 39.53125 22.125 38.996094 19.84375 C 38.679688 18.503906 38.046875 16.957031 37.367188 15.878906 C 37.296875 15.769531 37.242188 15.671875 37.242188 15.65625 C 37.242188 15.582031 36.21875 14.160156 36.023438 13.964844 C 36.007812 13.953125 35.84375 13.765625 35.65625 13.550781 C 35.167969 12.992188 34.441406 12.304688 33.972656 11.957031 C 33.855469 11.867188 33.742188 11.777344 33.632812 11.679688 C 33.3125 11.40625 32.046875 10.613281 31.476562 10.332031 C 29.089844 9.160156 26.902344 8.691406 24.390625 8.820312 M 26.457031 11.738281 C 27.09375 11.835938 27.617188 11.941406 27.957031 12.039062 C 28.453125 12.183594 29.105469 12.402344 29.234375 12.472656 C 29.304688 12.511719 29.390625 12.542969 29.421875 12.542969 C 29.480469 12.542969 30.105469 12.847656 30.621094 13.128906 C 31.59375 13.660156 32.804688 14.632812 33.554688 15.484375 L 33.941406 15.925781 C 34.121094 16.132812 34.582031 16.769531 34.730469 17.019531 L 35.007812 17.484375 C 37.328125 21.394531 37 26.519531 34.191406 30.257812 C 31.117188 34.351562 25.222656 36.046875 20.796875 34.105469 C 20.742188 34.082031 20.609375 34.027344 20.503906 33.980469 C 20.121094 33.824219 19.214844 33.359375 18.964844 33.195312 C 18.824219 33.101562 18.703125 33.027344 18.691406 33.027344 C 18.671875 33.027344 18.070312 32.597656 17.886719 32.453125 C 16.335938 31.234375 15.164062 29.734375 14.359375 27.945312 C 14.078125 27.3125 13.636719 25.957031 13.636719 25.714844 C 13.636719 25.648438 13.613281 25.527344 13.589844 25.449219 C 13.316406 24.636719 13.316406 22.246094 13.589844 20.996094 C 14 19.136719 14.664062 17.660156 15.730469 16.242188 C 16.414062 15.339844 17.699219 14.132812 18.546875 13.59375 C 18.628906 13.542969 18.707031 13.488281 18.71875 13.472656 C 18.808594 13.363281 19.996094 12.753906 20.660156 12.476562 C 22.335938 11.78125 24.734375 11.472656 26.457031 11.738281 M 24.023438 14.230469 C 20.882812 14.589844 18.21875 16.453125 16.835938 19.253906 C 16.660156 19.613281 16.519531 19.933594 16.519531 19.984375 C 16.519531 20.007812 16.488281 20.09375 16.445312 20.171875 C 16.40625 20.246094 16.375 20.34375 16.375 20.386719 C 16.375 20.429688 16.355469 20.484375 16.332031 20.507812 C 16.3125 20.535156 16.242188 20.777344 16.183594 21.046875 C 16.125 21.316406 16.050781 21.613281 16.023438 21.707031 C 15.949219 21.964844 15.914062 24.015625 15.976562 24.425781 C 16.074219 25.046875 16.234375 25.777344 16.324219 25.996094 C 16.34375 26.046875 16.402344 26.203125 16.449219 26.339844 C 17.460938 29.273438 20.171875 31.589844 23.289062 32.1875 C 24.15625 32.355469 26.285156 32.355469 26.59375 32.191406 C 26.640625 32.164062 26.734375 32.144531 26.800781 32.144531 C 26.867188 32.144531 27.039062 32.109375 27.179688 32.066406 C 27.710938 31.902344 28.449219 31.652344 28.53125 31.609375 C 28.578125 31.582031 28.75 31.496094 28.910156 31.417969 C 30.515625 30.648438 32.003906 29.265625 32.8125 27.785156 C 32.863281 27.6875 32.953125 27.523438 33.015625 27.414062 C 33.179688 27.117188 33.480469 26.40625 33.480469 26.316406 C 33.480469 26.269531 33.5 26.214844 33.527344 26.1875 C 33.621094 26.09375 33.855469 25.046875 33.972656 24.207031 C 34.113281 23.175781 33.917969 21.367188 33.554688 20.382812 C 33.386719 19.929688 33.203125 19.480469 33.136719 19.355469 C 33.113281 19.316406 33.019531 19.132812 32.921875 18.949219 C 32.773438 18.660156 32.335938 17.960938 32.257812 17.886719 C 32.246094 17.871094 32.109375 17.707031 31.960938 17.519531 C 31.601562 17.070312 31.113281 16.578125 30.675781 16.230469 C 30.484375 16.074219 30.320312 15.933594 30.3125 15.914062 C 30.300781 15.894531 30.273438 15.875 30.246094 15.875 C 30.21875 15.875 30.113281 15.8125 30.015625 15.738281 C 29.707031 15.492188 28.488281 14.847656 28.335938 14.847656 C 28.300781 14.847656 28.25 14.828125 28.222656 14.804688 C 27.800781 14.425781 25.300781 14.085938 24.023438 14.230469 M 27.355469 15.773438 C 28.894531 16.28125 30.320312 17.28125 31.167969 18.445312 C 31.609375 19.058594 31.441406 19.59375 30.785156 19.640625 L 30.488281 19.660156 L 30.261719 19.398438 C 29.050781 18.011719 28.242188 17.460938 26.636719 16.925781 C 26.203125 16.78125 26.070312 16.59375 26.09375 16.136719 C 26.105469 15.929688 26.488281 15.589844 26.722656 15.585938 C 26.753906 15.582031 27.039062 15.667969 27.355469 15.773438 M 32.328125 20.960938 C 32.507812 21.09375 32.609375 21.351562 32.636719 21.761719 L 32.664062 22.136719 L 32.488281 22.324219 C 32.019531 22.839844 31.359375 22.449219 31.296875 21.617188 C 31.25 20.972656 31.839844 20.59375 32.328125 20.960938 M 25.359375 22.550781 C 26.015625 22.925781 25.832031 23.9375 25.082031 24.089844 C 24.648438 24.175781 24.144531 23.738281 24.144531 23.269531 C 24.144531 22.636719 24.820312 22.238281 25.359375 22.550781 "/>
<path style=" stroke:none;fill-rule:evenodd;fill:rgb(16.862745%,41.960784%,3.137255%);fill-opacity:1;" d="M 35.613281 5.976562 C 35.597656 6.054688 35.585938 7.773438 35.585938 9.792969 L 35.585938 13.464844 L 35.789062 13.703125 C 35.902344 13.832031 36.007812 13.953125 36.019531 13.964844 C 36.207031 14.144531 37.242188 15.582031 37.242188 15.65625 C 37.242188 15.671875 37.296875 15.769531 37.367188 15.878906 C 37.929688 16.773438 38.480469 18.03125 38.855469 19.28125 C 39.515625 21.496094 39.5625 24.460938 38.96875 26.753906 C 38.914062 26.96875 38.859375 27.183594 38.804688 27.394531 C 38.402344 29.007812 37.09375 31.367188 35.789062 32.824219 C 35.570312 33.070312 35.582031 32.828125 35.59375 36.613281 C 35.605469 40.152344 35.605469 40.15625 35.773438 39.988281 C 36.171875 39.589844 36.511719 39.921875 36.511719 40.714844 C 36.511719 41.410156 36.761719 41.726562 37.191406 41.585938 C 37.492188 41.484375 37.558594 41.328125 37.574219 40.703125 C 37.59375 39.902344 37.675781 39.734375 37.964844 39.921875 L 38.074219 39.996094 L 38.074219 42.871094 C 38.074219 45.417969 38.082031 45.777344 38.15625 45.992188 C 38.683594 47.570312 40.835938 47.617188 41.445312 46.0625 C 41.539062 45.820312 41.542969 45.707031 41.542969 43.070312 L 41.542969 40.324219 L 41.660156 40.140625 C 41.898438 39.761719 42.539062 39.765625 42.769531 40.144531 C 42.824219 40.234375 42.863281 40.269531 42.863281 40.226562 C 42.863281 39.804688 42.105469 39.660156 41.703125 40.003906 C 41.617188 40.078125 41.589844 40.085938 41.570312 40.027344 C 41.554688 39.992188 41.550781 32.574219 41.558594 23.546875 L 41.570312 7.128906 L 42.886719 7.128906 C 43.613281 7.128906 44.316406 7.144531 44.453125 7.164062 L 44.695312 7.199219 L 44.453125 7.132812 C 44.257812 7.078125 43.445312 7.066406 40.390625 7.0625 C 36.164062 7.054688 36.519531 7.082031 36.34375 6.765625 C 36.21875 6.535156 35.714844 5.832031 35.679688 5.832031 C 35.660156 5.832031 35.628906 5.894531 35.613281 5.976562 M 44.890625 7.253906 C 45 7.273438 45.148438 7.316406 45.226562 7.347656 C 45.300781 7.375 45.398438 7.398438 45.445312 7.394531 C 45.582031 7.386719 45 7.207031 44.84375 7.210938 C 44.71875 7.214844 44.722656 7.21875 44.890625 7.253906 M 46.140625 7.683594 C 46.339844 7.78125 46.511719 7.882812 46.523438 7.902344 C 46.53125 7.921875 46.5625 7.9375 46.589844 7.9375 C 46.621094 7.9375 46.617188 7.910156 46.578125 7.863281 C 46.546875 7.824219 46.496094 7.792969 46.46875 7.792969 C 46.441406 7.792969 46.3125 7.726562 46.179688 7.644531 C 46.050781 7.5625 45.902344 7.5 45.855469 7.5 C 45.808594 7.5 45.9375 7.582031 46.140625 7.683594 M 46.675781 7.957031 C 46.675781 7.96875 46.828125 8.089844 47.011719 8.226562 C 47.34375 8.472656 47.960938 9.089844 48.007812 9.21875 C 48.019531 9.253906 48.042969 9.273438 48.0625 9.257812 C 48.109375 9.214844 47.703125 8.753906 47.324219 8.417969 C 47 8.132812 46.675781 7.902344 46.675781 7.957031 M 48.191406 9.484375 C 48.257812 9.589844 48.324219 9.6875 48.339844 9.703125 C 48.359375 9.714844 48.390625 9.777344 48.410156 9.835938 C 48.425781 9.898438 48.464844 9.945312 48.488281 9.945312 C 48.558594 9.945312 48.546875 9.921875 48.363281 9.632812 C 48.167969 9.324219 48.015625 9.195312 48.191406 9.484375 M 48.535156 10.003906 C 48.53125 10.046875 48.773438 10.585938 48.796875 10.585938 C 48.824219 10.585938 48.710938 10.285156 48.621094 10.117188 C 48.574219 10.039062 48.535156 9.984375 48.535156 10.003906 M 48.832031 10.699219 C 48.828125 10.746094 48.851562 10.832031 48.878906 10.886719 C 48.957031 11.027344 49.074219 11.476562 49.171875 12.003906 C 49.234375 12.335938 49.257812 12.414062 49.261719 12.273438 C 49.269531 11.949219 48.84375 10.394531 48.832031 10.699219 M 49.289062 23.375 C 49.289062 29.34375 49.296875 31.785156 49.304688 28.800781 C 49.308594 25.816406 49.308594 20.929688 49.304688 17.945312 C 49.296875 14.960938 49.289062 17.402344 49.289062 23.375 M 49.171875 34.785156 C 49.136719 35.03125 49.117188 35.246094 49.128906 35.257812 C 49.164062 35.289062 49.285156 34.476562 49.257812 34.402344 C 49.246094 34.367188 49.207031 34.539062 49.171875 34.785156 M 49.027344 35.578125 C 48.992188 35.714844 48.972656 35.835938 48.984375 35.847656 C 48.996094 35.859375 49.03125 35.753906 49.066406 35.621094 C 49.101562 35.484375 49.121094 35.363281 49.109375 35.351562 C 49.097656 35.339844 49.0625 35.441406 49.027344 35.578125 M 48.882812 36.089844 C 48.851562 36.160156 48.828125 36.253906 48.828125 36.300781 C 48.832031 36.34375 48.863281 36.296875 48.898438 36.1875 C 48.980469 35.96875 48.96875 35.90625 48.882812 36.089844 M 48.726562 36.535156 C 48.289062 37.613281 47.734375 38.261719 46.546875 39.09375 C 46.496094 39.128906 46.566406 39.097656 46.699219 39.023438 C 47.246094 38.726562 47.769531 38.234375 48.230469 37.582031 C 48.445312 37.28125 48.851562 36.464844 48.808594 36.421875 C 48.792969 36.40625 48.757812 36.457031 48.726562 36.535156 M 46.1875 39.253906 C 46.09375 39.304688 45.992188 39.347656 45.960938 39.347656 C 45.921875 39.351562 45.890625 39.367188 45.871094 39.398438 C 45.832031 39.457031 46.328125 39.273438 46.402344 39.203125 C 46.480469 39.121094 46.375 39.148438 46.1875 39.253906 M 45.578125 39.480469 C 45.460938 39.507812 45.359375 39.59375 45.4375 39.59375 C 45.46875 39.59375 45.566406 39.558594 45.65625 39.519531 C 45.816406 39.453125 45.777344 39.433594 45.578125 39.480469 M 45.027344 39.703125 C 44.796875 39.867188 44.726562 40.050781 44.707031 40.558594 C 44.691406 40.867188 44.660156 41.050781 44.605469 41.132812 C 44.511719 41.273438 44.503906 41.328125 44.578125 41.28125 C 44.679688 41.21875 44.738281 40.980469 44.765625 40.488281 C 44.800781 39.929688 44.847656 39.839844 45.1875 39.683594 C 45.3125 39.625 45.347656 39.59375 45.28125 39.59375 C 45.230469 39.59375 45.113281 39.640625 45.027344 39.703125 M 42.871094 40.621094 C 42.871094 40.820312 42.894531 40.984375 42.941406 41.0625 L 43.011719 41.183594 L 42.984375 41.0625 C 42.96875 40.996094 42.941406 40.796875 42.917969 40.621094 L 42.875 40.304688 L 42.871094 40.621094 M 43.082031 41.320312 C 43.195312 41.496094 43.453125 41.652344 43.628906 41.644531 C 43.726562 41.640625 43.738281 41.632812 43.671875 41.617188 C 43.5 41.582031 43.332031 41.488281 43.164062 41.335938 L 42.996094 41.183594 L 43.082031 41.320312 M 44.40625 41.402344 C 44.359375 41.476562 44.082031 41.601562 43.945312 41.609375 C 43.820312 41.613281 43.820312 41.617188 43.933594 41.636719 C 44.070312 41.664062 44.410156 41.523438 44.449219 41.425781 C 44.476562 41.347656 44.449219 41.332031 44.40625 41.402344 "/>
<path style=" stroke:none;fill-rule:evenodd;fill:rgb(96.862745%,5.098039%,1.960784%);fill-opacity:1;" d="M 22.117188 1.765625 C 19.1875 1.792969 19.003906 1.804688 18.328125 1.996094 C 17.929688 2.109375 17.304688 2.359375 17.09375 2.484375 C 16.996094 2.546875 16.894531 2.597656 16.867188 2.597656 C 16.84375 2.597656 16.796875 2.628906 16.765625 2.671875 C 16.730469 2.710938 16.671875 2.742188 16.632812 2.742188 C 16.402344 2.742188 15.863281 3.367188 15.050781 4.582031 C 14.796875 4.957031 14.578125 5.277344 14.566406 5.292969 C 14.550781 5.304688 14.453125 5.449219 14.347656 5.609375 C 14.238281 5.773438 14.136719 5.914062 14.125 5.929688 C 14.109375 5.941406 14.019531 6.0625 13.929688 6.199219 L 13.574219 6.726562 C 13.507812 6.824219 13.441406 6.921875 13.375 7.015625 C 13.371094 7.023438 12.808594 7.039062 12.121094 7.054688 L 10.875 7.082031 L 12.085938 7.09375 C 13.410156 7.105469 13.421875 7.105469 13.59375 6.824219 C 13.691406 6.664062 14.046875 6.152344 14.164062 6.003906 C 14.183594 5.976562 14.253906 5.867188 14.320312 5.757812 C 14.386719 5.648438 14.457031 5.539062 14.476562 5.511719 C 14.613281 5.34375 15.019531 4.765625 15.15625 4.546875 C 15.246094 4.402344 15.332031 4.277344 15.34375 4.261719 C 15.359375 4.25 15.460938 4.105469 15.566406 3.945312 C 15.75 3.667969 15.800781 3.605469 16.015625 3.351562 C 16.144531 3.203125 16.519531 2.890625 16.574219 2.890625 C 16.601562 2.890625 16.617188 4.628906 16.617188 7.125 C 16.617188 11.816406 16.59375 11.503906 16.960938 11.242188 C 17.433594 10.902344 18.589844 10.269531 19.183594 10.019531 C 19.265625 9.984375 19.386719 9.933594 19.453125 9.90625 C 20.609375 9.414062 21.984375 9.058594 23.386719 8.894531 C 24.191406 8.796875 26.082031 8.777344 26.613281 8.859375 C 28.703125 9.179688 29.816406 9.515625 31.476562 10.332031 C 32.046875 10.613281 33.3125 11.40625 33.632812 11.679688 C 33.742188 11.777344 33.855469 11.867188 33.972656 11.957031 C 34.257812 12.167969 34.867188 12.71875 35.230469 13.089844 C 35.425781 13.285156 35.582031 13.414062 35.582031 13.375 C 35.582031 13.335938 35.582031 11.683594 35.585938 9.699219 C 35.585938 7.71875 35.601562 6.03125 35.625 5.953125 C 35.671875 5.777344 35.601562 5.625 35.242188 5.121094 C 35.097656 4.914062 34.953125 4.703125 34.8125 4.492188 C 34.117188 3.414062 33.609375 2.863281 33.015625 2.542969 C 32.875 2.464844 32.730469 2.386719 32.589844 2.308594 C 32.4375 2.226562 32.273438 2.15625 32.222656 2.15625 C 32.171875 2.15625 32.109375 2.136719 32.085938 2.113281 C 32.011719 2.046875 31.351562 1.871094 30.863281 1.789062 C 30.394531 1.710938 28.488281 1.703125 22.117188 1.765625 M 42.144531 7.042969 C 42.4375 7.050781 42.898438 7.050781 43.171875 7.042969 C 43.445312 7.035156 43.207031 7.027344 42.644531 7.027344 C 42.078125 7.027344 41.855469 7.035156 42.144531 7.042969 M 5.277344 7.132812 L 5.058594 7.203125 L 5.277344 7.171875 C 5.398438 7.160156 5.597656 7.128906 5.71875 7.109375 L 5.9375 7.070312 L 5.71875 7.066406 C 5.597656 7.066406 5.398438 7.097656 5.277344 7.132812 M 44.476562 7.132812 C 44.828125 7.21875 44.953125 7.214844 44.671875 7.128906 C 44.550781 7.089844 44.398438 7.058594 44.332031 7.0625 C 44.261719 7.0625 44.328125 7.09375 44.476562 7.132812 M 4.714844 7.246094 C 4.6875 7.273438 4.625 7.304688 4.570312 7.320312 C 4.511719 7.335938 4.523438 7.339844 4.59375 7.328125 C 4.691406 7.308594 4.789062 7.285156 4.886719 7.261719 L 5.058594 7.214844 L 4.910156 7.207031 C 4.828125 7.207031 4.738281 7.222656 4.714844 7.246094 M 4.203125 7.421875 C 4.039062 7.515625 4.152344 7.515625 4.332031 7.425781 C 4.410156 7.382812 4.4375 7.351562 4.398438 7.351562 C 4.359375 7.351562 4.269531 7.386719 4.203125 7.421875 M 3.839844 7.570312 C 3.71875 7.664062 3.796875 7.664062 3.960938 7.570312 C 4.03125 7.53125 4.050781 7.5 4.007812 7.5 C 3.96875 7.5 3.890625 7.53125 3.839844 7.570312 M 3.378906 7.816406 C 3.234375 7.902344 3.09375 8.003906 3.0625 8.035156 C 3.015625 8.085938 3.644531 7.722656 3.710938 7.664062 C 3.789062 7.589844 3.597656 7.679688 3.378906 7.816406 M 46.550781 7.835938 C 46.566406 7.859375 46.65625 7.925781 46.753906 7.980469 C 46.847656 8.039062 46.914062 8.066406 46.898438 8.042969 C 46.882812 8.015625 46.792969 7.949219 46.699219 7.894531 C 46.601562 7.835938 46.535156 7.8125 46.550781 7.835938 M 2.710938 8.292969 C 2.277344 8.664062 1.667969 9.332031 1.722656 9.386719 C 1.734375 9.398438 1.832031 9.292969 1.941406 9.152344 C 2.125 8.910156 2.519531 8.503906 2.859375 8.214844 C 2.941406 8.144531 2.996094 8.085938 2.980469 8.085938 C 2.96875 8.085938 2.847656 8.179688 2.710938 8.292969 M 47.261719 8.34375 C 47.261719 8.355469 47.335938 8.425781 47.421875 8.503906 L 47.582031 8.648438 L 47.4375 8.488281 C 47.304688 8.339844 47.261719 8.308594 47.261719 8.34375 M 48.09375 9.257812 C 48.148438 9.339844 48.222656 9.421875 48.25 9.441406 C 48.28125 9.457031 48.246094 9.394531 48.171875 9.292969 C 48.007812 9.078125 47.945312 9.050781 48.09375 9.257812 M 1.5625 9.605469 C 1.507812 9.683594 1.46875 9.75 1.484375 9.75 C 1.496094 9.75 1.554688 9.683594 1.613281 9.605469 C 1.671875 9.523438 1.707031 9.457031 1.691406 9.457031 C 1.679688 9.457031 1.621094 9.523438 1.5625 9.605469 M 1.273438 10.128906 C 1.1875 10.3125 1.09375 10.503906 1.070312 10.550781 C 1.042969 10.601562 1.03125 10.652344 1.042969 10.667969 C 1.054688 10.679688 1.15625 10.496094 1.265625 10.261719 C 1.378906 10.027344 1.457031 9.824219 1.449219 9.8125 C 1.4375 9.804688 1.359375 9.945312 1.273438 10.128906 M 48.734375 10.363281 C 48.734375 10.390625 48.765625 10.46875 48.800781 10.535156 C 48.839844 10.601562 48.871094 10.636719 48.871094 10.609375 C 48.871094 10.582031 48.839844 10.503906 48.800781 10.4375 C 48.765625 10.371094 48.734375 10.335938 48.734375 10.363281 M 0.914062 10.960938 C 0.898438 10.984375 0.875 11.089844 0.859375 11.195312 L 0.828125 11.394531 L 0.902344 11.175781 C 0.96875 10.972656 0.972656 10.863281 0.914062 10.960938 M 0.765625 11.484375 C 0.75 11.53125 0.734375 11.609375 0.734375 11.652344 C 0.738281 11.707031 0.753906 11.695312 0.785156 11.617188 C 0.8125 11.550781 0.824219 11.476562 0.816406 11.449219 C 0.808594 11.421875 0.785156 11.4375 0.765625 11.484375 M 23.386719 11.742188 C 22.09375 11.949219 21.207031 12.214844 20.050781 12.746094 C 19.714844 12.898438 18.765625 13.417969 18.71875 13.472656 C 18.707031 13.488281 18.628906 13.542969 18.546875 13.59375 C 17.699219 14.132812 16.414062 15.339844 15.730469 16.242188 C 14.664062 17.660156 14 19.136719 13.589844 20.996094 C 13.316406 22.246094 13.316406 24.636719 13.589844 25.449219 C 13.613281 25.527344 13.636719 25.648438 13.636719 25.714844 C 13.636719 25.957031 14.078125 27.3125 14.359375 27.945312 C 15.164062 29.734375 16.335938 31.234375 17.886719 32.453125 C 18.070312 32.597656 18.671875 33.027344 18.691406 33.027344 C 18.703125 33.027344 18.824219 33.101562 18.964844 33.195312 C 19.214844 33.359375 20.121094 33.824219 20.503906 33.980469 C 20.609375 34.027344 20.742188 34.082031 20.796875 34.105469 C 21.132812 34.253906 22.15625 34.546875 22.75 34.664062 C 28.003906 35.714844 33.34375 32.914062 35.558594 27.953125 C 37.039062 24.640625 36.820312 20.542969 35.007812 17.484375 L 34.730469 17.019531 C 34.582031 16.769531 34.121094 16.132812 33.941406 15.925781 L 33.554688 15.484375 C 32.804688 14.632812 31.59375 13.660156 30.621094 13.128906 C 30.105469 12.847656 29.480469 12.542969 29.421875 12.542969 C 29.390625 12.542969 29.304688 12.511719 29.234375 12.472656 C 28.976562 12.335938 27.894531 12.003906 27.320312 11.890625 C 26.113281 11.648438 24.390625 11.582031 23.386719 11.742188 M 26.007812 11.761719 C 26.152344 11.789062 26.445312 11.832031 26.660156 11.859375 C 27.121094 11.910156 27.664062 12.015625 27.742188 12.066406 C 27.769531 12.082031 27.890625 12.113281 28.007812 12.132812 C 28.125 12.152344 28.277344 12.195312 28.34375 12.234375 C 28.414062 12.269531 28.519531 12.296875 28.578125 12.300781 C 28.636719 12.300781 28.699219 12.320312 28.714844 12.347656 C 28.730469 12.375 28.777344 12.398438 28.816406 12.398438 C 28.859375 12.398438 28.984375 12.4375 29.097656 12.488281 C 29.238281 12.546875 29.378906 12.609375 29.519531 12.667969 C 30.191406 12.953125 31.511719 13.699219 31.566406 13.828125 C 31.574219 13.851562 31.613281 13.867188 31.652344 13.867188 C 31.6875 13.867188 31.71875 13.882812 31.71875 13.902344 C 31.71875 13.925781 31.820312 14.007812 31.9375 14.085938 C 32.058594 14.167969 32.160156 14.25 32.160156 14.273438 C 32.160156 14.292969 32.179688 14.308594 32.203125 14.308594 C 32.3125 14.308594 33.738281 15.738281 33.96875 16.074219 C 34.019531 16.144531 34.074219 16.21875 34.132812 16.285156 C 34.503906 16.707031 35.234375 17.96875 35.554688 18.742188 C 35.597656 18.851562 35.65625 18.976562 35.683594 19.023438 C 35.707031 19.070312 35.726562 19.136719 35.726562 19.171875 C 35.730469 19.203125 35.761719 19.292969 35.800781 19.371094 C 35.839844 19.445312 35.886719 19.582031 35.902344 19.675781 C 35.921875 19.769531 35.953125 19.859375 35.976562 19.875 C 36.003906 19.886719 36.019531 19.949219 36.019531 20.007812 C 36.019531 20.066406 36.050781 20.214844 36.089844 20.335938 C 36.171875 20.597656 36.289062 21.144531 36.375 21.683594 C 36.515625 22.574219 36.417969 25.148438 36.222656 25.644531 C 36.191406 25.71875 36.167969 25.855469 36.167969 25.945312 C 36.167969 26.039062 36.148438 26.125 36.125 26.140625 C 36.097656 26.15625 36.0625 26.261719 36.042969 26.375 C 36.027344 26.488281 35.992188 26.605469 35.972656 26.632812 C 35.953125 26.660156 35.921875 26.757812 35.902344 26.851562 C 35.882812 26.945312 35.851562 27.066406 35.824219 27.121094 C 35.636719 27.546875 35.582031 27.6875 35.582031 27.726562 C 35.582031 27.789062 34.917969 29.097656 34.839844 29.191406 C 34.777344 29.265625 34.683594 29.421875 34.621094 29.546875 C 34.40625 30 32.878906 31.71875 32.316406 32.144531 C 32.21875 32.21875 32.117188 32.300781 32.023438 32.378906 C 31.554688 32.78125 30.152344 33.597656 29.394531 33.914062 C 29.289062 33.957031 29.121094 34.03125 29.019531 34.074219 C 28.917969 34.117188 28.800781 34.152344 28.761719 34.152344 C 28.722656 34.152344 28.652344 34.175781 28.605469 34.199219 C 28.53125 34.242188 28.332031 34.300781 27.613281 34.5 C 26.332031 34.855469 23.101562 34.851562 22.3125 34.496094 C 22.257812 34.472656 22.136719 34.4375 22.042969 34.421875 C 21.816406 34.378906 21.402344 34.253906 21.296875 34.199219 C 21.25 34.175781 21.1875 34.152344 21.160156 34.152344 C 21.128906 34.152344 21.035156 34.125 20.949219 34.085938 C 20.867188 34.046875 20.675781 33.96875 20.527344 33.910156 C 20.191406 33.773438 19.429688 33.394531 19.234375 33.269531 C 19.152344 33.21875 19.050781 33.15625 19.007812 33.136719 C 18.925781 33.097656 18.074219 32.53125 18.035156 32.488281 C 18.023438 32.472656 17.902344 32.375 17.765625 32.265625 C 17.09375 31.730469 16.207031 30.820312 15.8125 30.261719 C 15.757812 30.1875 15.644531 30.035156 15.5625 29.921875 C 15.183594 29.410156 14.515625 28.238281 14.515625 28.089844 C 14.515625 28.054688 14.492188 28.027344 14.46875 28.027344 C 14.441406 28.027344 14.417969 27.988281 14.417969 27.941406 C 14.417969 27.890625 14.386719 27.808594 14.347656 27.757812 C 14.308594 27.703125 14.273438 27.632812 14.273438 27.59375 C 14.273438 27.558594 14.242188 27.460938 14.203125 27.375 C 14.164062 27.289062 14.097656 27.097656 14.050781 26.949219 C 14.003906 26.800781 13.9375 26.609375 13.898438 26.519531 C 13.863281 26.429688 13.832031 26.304688 13.832031 26.238281 C 13.832031 26.171875 13.800781 26.035156 13.765625 25.933594 C 13.375 24.871094 13.375 21.996094 13.761719 20.601562 C 13.800781 20.464844 13.832031 20.296875 13.832031 20.234375 C 13.835938 20.167969 13.867188 20.070312 13.90625 20.019531 C 13.945312 19.96875 13.976562 19.863281 13.976562 19.789062 C 13.976562 19.714844 14 19.644531 14.023438 19.628906 C 14.046875 19.613281 14.085938 19.527344 14.101562 19.441406 C 14.121094 19.351562 14.167969 19.214844 14.203125 19.136719 C 14.238281 19.054688 14.292969 18.914062 14.328125 18.820312 C 14.457031 18.488281 15.007812 17.425781 15.199219 17.144531 C 15.308594 16.988281 15.394531 16.84375 15.394531 16.828125 C 15.394531 16.75 16.21875 15.734375 16.636719 15.289062 C 17.234375 14.65625 18.757812 13.425781 18.941406 13.425781 C 18.953125 13.425781 19.101562 13.339844 19.269531 13.238281 C 19.558594 13.058594 20.058594 12.8125 20.503906 12.621094 C 20.609375 12.578125 20.738281 12.519531 20.785156 12.492188 C 20.832031 12.46875 20.894531 12.445312 20.921875 12.445312 C 20.953125 12.445312 21.046875 12.417969 21.132812 12.378906 C 21.40625 12.261719 22.183594 12.046875 22.726562 11.9375 C 23.742188 11.734375 25.402344 11.644531 26.007812 11.761719 M 0.644531 12.136719 C 0.613281 12.296875 0.589844 12.515625 0.589844 12.621094 C 0.59375 12.746094 0.621094 12.660156 0.664062 12.371094 C 0.742188 11.859375 0.734375 11.71875 0.644531 12.136719 M 49.277344 12.398438 C 49.277344 12.492188 49.289062 12.53125 49.300781 12.484375 C 49.3125 12.425781 49.3125 12.367188 49.300781 12.3125 C 49.289062 12.265625 49.277344 12.304688 49.277344 12.398438 M 8.136719 12.789062 L 8.039062 12.832031 L 8.136719 12.828125 C 8.191406 12.828125 8.289062 12.8125 8.359375 12.789062 L 8.480469 12.75 L 8.359375 12.75 C 8.289062 12.746094 8.191406 12.765625 8.136719 12.789062 M 8.867188 12.816406 C 8.96875 12.855469 9.085938 12.914062 9.125 12.941406 C 9.160156 12.972656 9.203125 12.984375 9.222656 12.96875 C 9.257812 12.933594 8.855469 12.742188 8.75 12.746094 C 8.707031 12.746094 8.761719 12.777344 8.867188 12.816406 M 49.339844 23.152344 C 49.339844 28.894531 49.34375 31.234375 49.351562 28.355469 C 49.359375 25.476562 49.359375 20.78125 49.351562 17.917969 C 49.34375 15.058594 49.339844 17.414062 49.339844 23.152344 M 7.617188 13.121094 C 7.546875 13.195312 7.464844 13.308594 7.433594 13.378906 C 7.386719 13.480469 7.386719 13.484375 7.441406 13.40625 C 7.472656 13.355469 7.566406 13.238281 7.640625 13.148438 C 7.808594 12.953125 7.792969 12.929688 7.617188 13.121094 M 9.285156 12.992188 C 9.285156 13.007812 9.34375 13.082031 9.414062 13.160156 C 9.699219 13.484375 9.800781 14.023438 9.65625 14.429688 C 9.632812 14.492188 9.648438 14.484375 9.695312 14.40625 C 9.816406 14.210938 9.796875 13.757812 9.652344 13.457031 C 9.554688 13.242188 9.285156 12.90625 9.285156 12.992188 M 7.296875 13.988281 C 7.296875 14.152344 7.308594 14.210938 7.316406 14.125 C 7.328125 14.035156 7.328125 13.902344 7.316406 13.828125 C 7.304688 13.757812 7.296875 13.828125 7.296875 13.988281 M 24.042969 14.132812 C 24.027344 14.148438 23.839844 14.183594 23.628906 14.210938 C 23.226562 14.265625 22.628906 14.390625 22.457031 14.460938 C 22.40625 14.480469 22.304688 14.511719 22.238281 14.53125 C 21.992188 14.59375 21.285156 14.867188 21.269531 14.90625 C 21.261719 14.925781 21.226562 14.945312 21.195312 14.945312 C 21.066406 14.945312 19.941406 15.574219 19.941406 15.644531 C 19.941406 15.664062 19.917969 15.679688 19.890625 15.679688 C 19.585938 15.679688 18.027344 17.21875 17.410156 18.128906 C 17.019531 18.707031 16.792969 19.140625 16.425781 20.015625 C 16.316406 20.277344 16.148438 20.839844 16.03125 21.339844 C 15.796875 22.34375 15.785156 24.230469 16.007812 25.019531 C 16.046875 25.15625 16.082031 25.320312 16.082031 25.378906 C 16.082031 25.496094 16.191406 25.875 16.308594 26.148438 C 16.34375 26.234375 16.375 26.328125 16.375 26.355469 C 16.375 26.730469 17.441406 28.546875 18.101562 29.292969 C 18.613281 29.875 19.777344 30.871094 20.136719 31.035156 C 20.175781 31.050781 20.277344 31.109375 20.355469 31.15625 C 20.566406 31.285156 21.046875 31.53125 21.335938 31.65625 C 21.46875 31.714844 21.613281 31.78125 21.652344 31.800781 C 21.691406 31.820312 21.890625 31.882812 22.09375 31.945312 C 22.292969 32.003906 22.492188 32.066406 22.53125 32.082031 C 22.648438 32.132812 23.164062 32.238281 23.535156 32.292969 C 24.886719 32.488281 25 32.488281 26.367188 32.292969 C 26.839844 32.226562 27.230469 32.148438 27.347656 32.101562 C 27.398438 32.078125 27.574219 32.023438 27.738281 31.976562 C 27.898438 31.929688 28.097656 31.863281 28.175781 31.828125 C 28.257812 31.792969 28.441406 31.714844 28.582031 31.65625 C 29.097656 31.445312 30.210938 30.800781 30.453125 30.570312 C 30.492188 30.53125 30.609375 30.4375 30.71875 30.355469 C 31.1875 30.003906 32.503906 28.558594 32.503906 28.394531 C 32.503906 28.375 32.5625 28.28125 32.636719 28.183594 C 32.820312 27.9375 32.855469 27.878906 33.140625 27.292969 C 33.238281 27.09375 33.335938 26.894531 33.4375 26.695312 C 33.460938 26.648438 33.480469 26.585938 33.480469 26.554688 C 33.480469 26.523438 33.511719 26.429688 33.546875 26.34375 C 33.644531 26.128906 33.820312 25.53125 33.820312 25.421875 C 33.820312 25.371094 33.84375 25.292969 33.867188 25.246094 C 34.046875 24.898438 34.105469 22.449219 33.953125 21.683594 C 33.808594 20.960938 33.773438 20.800781 33.730469 20.703125 C 33.710938 20.648438 33.652344 20.484375 33.605469 20.335938 C 33.558594 20.1875 33.492188 20 33.457031 19.917969 C 33.421875 19.839844 33.34375 19.652344 33.285156 19.503906 C 33.226562 19.359375 33.128906 19.160156 33.070312 19.0625 C 32.992188 18.929688 32.917969 18.792969 32.84375 18.65625 C 32.777344 18.527344 32.707031 18.425781 32.6875 18.425781 C 32.664062 18.425781 32.648438 18.402344 32.648438 18.378906 C 32.648438 18.332031 32.367188 17.886719 32.308594 17.835938 C 32.289062 17.824219 32.226562 17.734375 32.160156 17.644531 C 31.835938 17.175781 30.914062 16.28125 30.417969 15.941406 C 30.316406 15.871094 30.21875 15.800781 30.207031 15.785156 C 30.152344 15.71875 29.863281 15.535156 29.816406 15.535156 C 29.789062 15.535156 29.765625 15.511719 29.765625 15.488281 C 29.765625 15.460938 29.714844 15.425781 29.65625 15.40625 C 29.59375 15.386719 29.535156 15.355469 29.519531 15.335938 C 29.507812 15.316406 29.253906 15.183594 28.960938 15.046875 C 28.664062 14.90625 28.382812 14.773438 28.335938 14.746094 C 28.289062 14.722656 28.230469 14.699219 28.207031 14.699219 C 28.179688 14.699219 28.097656 14.675781 28.019531 14.644531 C 27.703125 14.511719 27.046875 14.339844 26.441406 14.230469 C 26.03125 14.15625 24.097656 14.078125 24.042969 14.132812 M 26.222656 14.28125 C 27.046875 14.402344 28.074219 14.671875 28.222656 14.804688 C 28.25 14.828125 28.300781 14.847656 28.335938 14.847656 C 28.488281 14.847656 29.707031 15.492188 30.015625 15.738281 C 30.113281 15.8125 30.21875 15.875 30.246094 15.875 C 30.273438 15.875 30.300781 15.894531 30.3125 15.914062 C 30.320312 15.933594 30.484375 16.074219 30.675781 16.230469 C 31.113281 16.578125 31.601562 17.070312 31.960938 17.519531 C 32.109375 17.707031 32.246094 17.871094 32.257812 17.886719 C 32.335938 17.960938 32.773438 18.660156 32.921875 18.949219 C 33.019531 19.132812 33.113281 19.316406 33.136719 19.355469 C 33.203125 19.480469 33.386719 19.929688 33.554688 20.382812 C 34.074219 21.800781 34.152344 23.734375 33.753906 25.40625 C 33.613281 26.003906 33.570312 26.144531 33.527344 26.1875 C 33.5 26.214844 33.480469 26.269531 33.480469 26.316406 C 33.480469 26.40625 33.179688 27.117188 33.015625 27.414062 C 32.953125 27.523438 32.863281 27.6875 32.8125 27.785156 C 32.003906 29.265625 30.515625 30.648438 28.910156 31.417969 C 28.75 31.496094 28.578125 31.582031 28.53125 31.609375 C 28.449219 31.652344 27.710938 31.902344 27.179688 32.066406 C 27.039062 32.109375 26.867188 32.144531 26.800781 32.144531 C 26.734375 32.144531 26.640625 32.164062 26.59375 32.191406 C 26.285156 32.355469 24.15625 32.355469 23.289062 32.1875 C 20.171875 31.589844 17.460938 29.273438 16.449219 26.339844 C 16.410156 26.222656 16.367188 26.109375 16.324219 25.996094 C 16.234375 25.777344 16.074219 25.046875 15.976562 24.425781 C 15.914062 24.015625 15.949219 21.964844 16.023438 21.707031 C 16.050781 21.613281 16.125 21.316406 16.183594 21.046875 C 16.242188 20.777344 16.3125 20.535156 16.332031 20.507812 C 16.355469 20.484375 16.375 20.429688 16.375 20.386719 C 16.375 20.34375 16.40625 20.246094 16.445312 20.171875 C 16.488281 20.09375 16.519531 20.007812 16.519531 19.984375 C 16.519531 19.933594 16.660156 19.613281 16.835938 19.253906 C 18.574219 15.730469 22.371094 13.71875 26.222656 14.28125 M 7.332031 14.386719 C 7.332031 14.453125 7.554688 14.789062 7.675781 14.90625 C 7.972656 15.1875 8.519531 15.308594 8.871094 15.167969 C 8.976562 15.125 9.011719 15.101562 8.945312 15.117188 C 8.265625 15.273438 7.714844 15.054688 7.429688 14.511719 C 7.378906 14.414062 7.335938 14.355469 7.332031 14.386719 M 9.410156 14.796875 C 9.355469 14.878906 9.296875 14.945312 9.285156 14.945312 C 9.269531 14.945312 9.214844 14.980469 9.160156 15.019531 C 9.070312 15.09375 9.074219 15.09375 9.1875 15.039062 C 9.257812 15.007812 9.34375 14.945312 9.382812 14.902344 C 9.53125 14.742188 9.589844 14.652344 9.550781 14.652344 C 9.527344 14.652344 9.460938 14.71875 9.410156 14.796875 M 26.511719 15.652344 C 26.328125 15.730469 26.101562 15.996094 26.09375 16.136719 C 26.070312 16.59375 26.203125 16.78125 26.636719 16.925781 C 28.242188 17.460938 29.050781 18.011719 30.261719 19.398438 L 30.488281 19.660156 L 30.785156 19.640625 C 31.441406 19.59375 31.609375 19.058594 31.167969 18.445312 C 30.320312 17.28125 28.894531 16.28125 27.355469 15.773438 C 26.714844 15.558594 26.71875 15.5625 26.511719 15.652344 M 27.292969 15.832031 C 27.320312 15.855469 27.378906 15.875 27.425781 15.875 C 27.597656 15.875 28.648438 16.363281 29.015625 16.613281 C 29.136719 16.691406 29.25 16.757812 29.273438 16.757812 C 29.296875 16.757812 29.324219 16.773438 29.332031 16.796875 C 29.34375 16.816406 29.429688 16.886719 29.527344 16.953125 C 30.46875 17.601562 31.304688 18.574219 31.304688 19.019531 C 31.304688 19.628906 30.6875 19.816406 30.285156 19.328125 C 29.828125 18.773438 28.832031 17.835938 28.699219 17.835938 C 28.671875 17.835938 28.640625 17.820312 28.632812 17.800781 C 28.609375 17.746094 28.359375 17.582031 28.128906 17.46875 C 28.019531 17.414062 27.925781 17.355469 27.917969 17.335938 C 27.90625 17.3125 27.878906 17.296875 27.851562 17.296875 C 27.804688 17.296875 27.414062 17.132812 27.265625 17.054688 C 27.222656 17.03125 27.105469 16.996094 27.007812 16.976562 C 26.910156 16.957031 26.820312 16.921875 26.804688 16.898438 C 26.789062 16.875 26.71875 16.855469 26.648438 16.855469 C 26.257812 16.851562 26.003906 16.167969 26.289062 15.882812 C 26.472656 15.699219 27.125 15.664062 27.292969 15.832031 M 31.636719 20.894531 C 31.179688 21.101562 31.171875 22.011719 31.621094 22.417969 C 31.828125 22.605469 32.277344 22.558594 32.488281 22.324219 L 32.664062 22.136719 L 32.636719 21.761719 C 32.585938 21.019531 32.164062 20.65625 31.636719 20.894531 M 32.257812 21.003906 C 32.589844 21.199219 32.710938 22.003906 32.449219 22.273438 C 32.019531 22.722656 31.472656 22.410156 31.359375 21.652344 C 31.277344 21.097656 31.789062 20.726562 32.257812 21.003906 M 24.613281 22.515625 C 23.925781 22.875 24.015625 23.8125 24.757812 24.058594 C 25.417969 24.277344 26.039062 23.410156 25.652344 22.816406 C 25.433594 22.484375 24.945312 22.34375 24.613281 22.515625 M 25.34375 22.632812 C 25.695312 22.835938 25.792969 23.359375 25.539062 23.695312 C 25.167969 24.183594 24.476562 24.0625 24.273438 23.480469 C 24.0625 22.863281 24.773438 22.304688 25.34375 22.632812 M 35.089844 33.578125 C 34.835938 33.828125 34.550781 34.09375 34.457031 34.175781 C 34.363281 34.253906 34.207031 34.386719 34.113281 34.46875 C 34.015625 34.550781 33.886719 34.652344 33.824219 34.691406 C 33.75 34.742188 33.679688 34.800781 33.609375 34.859375 C 32.851562 35.527344 30.699219 36.636719 29.324219 37.066406 C 28.539062 37.3125 28.453125 37.339844 28.367188 37.339844 C 28.320312 37.339844 28.171875 37.371094 28.035156 37.410156 C 26.789062 37.761719 24.117188 37.824219 22.628906 37.53125 C 21.554688 37.320312 20.882812 37.152344 20.382812 36.96875 C 18.949219 36.449219 18.035156 35.996094 16.988281 35.300781 C 16.839844 35.203125 16.699219 35.136719 16.667969 35.15625 C 16.632812 35.179688 16.617188 37.003906 16.617188 41.199219 C 16.617188 46.414062 16.605469 47.246094 16.542969 47.457031 C 16.078125 49.011719 14.144531 49.140625 13.476562 47.660156 C 13.398438 47.484375 13.390625 47.199219 13.390625 43.9375 C 13.390625 39.851562 13.382812 39.789062 12.898438 39.789062 C 12.371094 39.789062 12.367188 39.804688 12.351562 42.851562 C 12.339844 45.847656 12.367188 45.65625 11.9375 45.867188 C 11.640625 46.015625 11.390625 45.964844 11.136719 45.707031 L 10.949219 45.511719 L 10.949219 42.828125 C 10.949219 40.230469 10.945312 40.140625 10.851562 40.027344 C 10.800781 39.964844 10.753906 39.9375 10.753906 39.96875 C 10.753906 40.003906 10.773438 40.039062 10.800781 40.058594 C 10.832031 40.078125 10.851562 41.011719 10.851562 42.695312 C 10.851562 44.253906 10.871094 45.371094 10.898438 45.476562 C 11.070312 46.09375 11.929688 46.195312 12.3125 45.640625 C 12.414062 45.492188 12.414062 45.453125 12.414062 42.90625 C 12.414062 39.929688 12.421875 39.886719 12.847656 39.886719 C 13.28125 39.886719 13.261719 39.726562 13.292969 43.855469 L 13.320312 47.507812 L 13.445312 47.777344 C 14.101562 49.152344 16.101562 49.042969 16.585938 47.609375 C 16.660156 47.390625 16.667969 46.996094 16.667969 43.800781 C 16.667969 41.671875 16.683594 40.1875 16.714844 40.113281 C 16.800781 39.886719 17.433594 39.695312 17.585938 39.847656 C 17.628906 39.890625 17.644531 40.289062 17.644531 41.328125 C 17.644531 42.832031 17.671875 43.070312 17.859375 43.25 C 18.230469 43.601562 18.699219 43.632812 19.101562 43.328125 C 19.390625 43.113281 19.402344 43.035156 19.402344 41.417969 C 19.402344 40.3125 19.417969 39.933594 19.464844 39.871094 C 19.53125 39.777344 19.894531 39.777344 27.273438 39.835938 C 30.167969 39.855469 29.972656 39.796875 30.007812 40.664062 C 30.039062 41.296875 30.054688 41.339844 30.363281 41.535156 C 31 41.9375 31.621094 41.449219 31.617188 40.546875 C 31.617188 39.96875 31.777344 39.78125 32.152344 39.90625 C 32.429688 40.003906 32.453125 40.125 32.453125 41.550781 C 32.453125 42.929688 32.480469 43.113281 32.726562 43.445312 C 33.378906 44.3125 34.429688 44.386719 35.1875 43.617188 C 35.609375 43.191406 35.632812 43.0625 35.621094 41.40625 C 35.613281 40.664062 35.605469 38.507812 35.597656 36.613281 C 35.59375 34.714844 35.582031 33.15625 35.570312 33.148438 C 35.5625 33.136719 35.34375 33.332031 35.089844 33.578125 M 0.589844 34.035156 C 0.59375 34.222656 0.613281 34.429688 0.632812 34.496094 C 0.65625 34.5625 0.660156 34.421875 0.648438 34.179688 C 0.617188 33.648438 0.585938 33.566406 0.589844 34.035156 M 49.28125 34.421875 C 49.28125 34.558594 49.289062 34.605469 49.300781 34.53125 C 49.3125 34.457031 49.3125 34.347656 49.300781 34.289062 C 49.289062 34.226562 49.28125 34.289062 49.28125 34.421875 M 0.695312 34.789062 C 0.695312 34.886719 0.707031 34.921875 0.71875 34.875 C 0.730469 34.820312 0.730469 34.761719 0.71875 34.703125 C 0.707031 34.65625 0.695312 34.695312 0.695312 34.789062 M 0.738281 35.183594 C 0.738281 35.222656 0.757812 35.300781 0.78125 35.355469 L 0.824219 35.453125 L 0.828125 35.355469 C 0.828125 35.300781 0.808594 35.222656 0.78125 35.183594 C 0.738281 35.117188 0.734375 35.117188 0.738281 35.183594 M 49.109375 35.425781 C 49.089844 35.523438 49.0625 35.652344 49.046875 35.722656 C 49.03125 35.789062 49.054688 35.757812 49.097656 35.648438 C 49.136719 35.539062 49.164062 35.40625 49.15625 35.355469 C 49.148438 35.289062 49.128906 35.316406 49.109375 35.425781 M 0.835938 35.550781 C 0.839844 35.652344 1.015625 36.171875 1.023438 36.089844 C 1.023438 36.0625 0.984375 35.90625 0.929688 35.746094 C 0.878906 35.585938 0.835938 35.496094 0.835938 35.550781 M 48.964844 35.964844 C 48.949219 36.042969 48.925781 36.113281 48.902344 36.1875 C 48.886719 36.242188 48.90625 36.222656 48.949219 36.148438 C 48.992188 36.070312 49.019531 35.972656 49.011719 35.925781 C 49 35.867188 48.984375 35.878906 48.964844 35.964844 M 1.03125 36.199219 C 1.027344 36.234375 1.046875 36.300781 1.070312 36.347656 C 1.09375 36.394531 1.140625 36.496094 1.167969 36.574219 C 1.199219 36.652344 1.238281 36.703125 1.25 36.6875 C 1.265625 36.675781 1.257812 36.621094 1.230469 36.570312 C 1.1875 36.484375 1.148438 36.398438 1.109375 36.308594 C 1.066406 36.214844 1.03125 36.164062 1.03125 36.199219 M 1.269531 36.773438 C 1.269531 36.839844 1.609375 37.429688 1.667969 37.464844 C 1.695312 37.480469 1.683594 37.433594 1.640625 37.355469 C 1.597656 37.277344 1.507812 37.117188 1.441406 37 C 1.308594 36.761719 1.269531 36.714844 1.269531 36.773438 M 1.839844 37.714844 C 2.011719 37.957031 2.492188 38.496094 2.492188 38.441406 C 2.492188 38.417969 2.386719 38.289062 2.261719 38.152344 C 2.125 38.007812 1.992188 37.859375 1.863281 37.707031 L 1.703125 37.511719 L 1.839844 37.714844 M 2.710938 38.640625 C 3.011719 38.910156 3.78125 39.394531 3.832031 39.34375 C 3.84375 39.332031 3.730469 39.257812 3.578125 39.179688 C 3.425781 39.097656 3.125 38.90625 2.90625 38.746094 C 2.667969 38.570312 2.59375 38.53125 2.710938 38.640625 M 4.351562 39.566406 C 4.417969 39.605469 4.515625 39.636719 4.570312 39.636719 C 4.625 39.636719 4.578125 39.605469 4.472656 39.566406 C 4.226562 39.476562 4.195312 39.480469 4.351562 39.566406 M 4.863281 39.714844 C 4.96875 39.753906 5.113281 39.78125 5.179688 39.78125 C 5.246094 39.78125 5.183594 39.75 5.035156 39.714844 C 4.699219 39.628906 4.605469 39.632812 4.863281 39.714844 M 44.976562 39.824219 C 44.859375 39.941406 44.859375 39.945312 44.964844 39.863281 C 45.171875 39.699219 45.183594 39.691406 45.148438 39.691406 C 45.128906 39.691406 45.050781 39.75 44.976562 39.824219 M 5.914062 39.847656 C 6.640625 39.914062 6.707031 39.933594 6.804688 40.132812 C 6.871094 40.261719 6.890625 40.277344 6.890625 40.203125 C 6.890625 39.929688 6.507812 39.792969 5.765625 39.800781 C 5.476562 39.804688 5.488281 39.808594 5.914062 39.847656 M 10.335938 39.894531 C 10.285156 39.925781 10.226562 39.960938 10.214844 39.972656 C 10.203125 39.984375 10.179688 40.316406 10.164062 40.710938 C 10.136719 41.382812 10.113281 41.519531 9.945312 41.917969 C 9.917969 41.980469 9.921875 42 9.960938 41.976562 C 10.097656 41.890625 10.214844 41.28125 10.214844 40.660156 C 10.214844 39.96875 10.234375 39.925781 10.539062 39.925781 C 10.660156 39.925781 10.695312 39.914062 10.648438 39.882812 C 10.558594 39.824219 10.457031 39.828125 10.335938 39.894531 M 42.230469 39.886719 C 42.417969 39.945312 42.519531 39.945312 42.425781 39.886719 C 42.382812 39.859375 42.296875 39.839844 42.230469 39.84375 L 42.105469 39.847656 L 42.230469 39.886719 M 44.789062 40.476562 C 44.789062 40.703125 44.796875 40.796875 44.804688 40.683594 C 44.816406 40.570312 44.816406 40.382812 44.804688 40.265625 C 44.796875 40.152344 44.789062 40.246094 44.789062 40.476562 M 42.832031 40.546875 C 42.832031 40.710938 42.839844 40.769531 42.851562 40.683594 C 42.863281 40.59375 42.863281 40.460938 42.851562 40.386719 C 42.839844 40.316406 42.832031 40.386719 42.832031 40.546875 M 42.914062 41.097656 C 42.914062 41.125 42.957031 41.203125 43.011719 41.265625 L 43.113281 41.382812 L 43.027344 41.234375 C 42.914062 41.039062 42.914062 41.039062 42.914062 41.097656 M 44.527344 41.332031 C 44.464844 41.398438 44.421875 41.464844 44.433594 41.476562 C 44.449219 41.492188 44.507812 41.4375 44.566406 41.355469 C 44.699219 41.179688 44.679688 41.167969 44.527344 41.332031 M 6.890625 41.515625 C 6.890625 41.585938 6.914062 41.660156 6.941406 41.675781 C 6.976562 41.695312 6.980469 41.660156 6.960938 41.570312 C 6.914062 41.382812 6.890625 41.363281 6.890625 41.515625 M 43.683594 41.6875 C 43.773438 41.695312 43.902344 41.695312 43.976562 41.6875 C 44.050781 41.675781 43.976562 41.664062 43.816406 41.664062 C 43.65625 41.667969 43.597656 41.675781 43.683594 41.6875 M 7.015625 41.847656 C 7.3125 42.917969 9.1875 43.136719 9.828125 42.175781 C 9.929688 42.023438 9.929688 42.023438 9.769531 42.195312 C 8.980469 43.035156 7.691406 42.929688 7.132812 41.980469 C 7.050781 41.839844 6.996094 41.78125 7.015625 41.847656 "/>
<path style=" stroke:none;fill-rule:evenodd;fill:rgb(98.431373%,98.431373%,98.431373%);fill-opacity:1;" d="M 0 24.5 L 0 49 L 50 49 L 50 0 L 0 0 L 0 24.5 M 30.863281 1.789062 C 31.351562 1.871094 32.011719 2.046875 32.085938 2.113281 C 32.109375 2.136719 32.171875 2.15625 32.222656 2.15625 C 32.273438 2.15625 32.4375 2.226562 32.589844 2.308594 C 32.742188 2.394531 32.933594 2.5 33.015625 2.542969 C 33.609375 2.863281 34.117188 3.414062 34.8125 4.492188 C 34.953125 4.703125 35.097656 4.914062 35.242188 5.121094 C 35.378906 5.308594 35.53125 5.539062 35.585938 5.636719 C 35.636719 5.730469 35.824219 6.003906 36 6.246094 C 36.171875 6.488281 36.335938 6.734375 36.359375 6.785156 C 36.488281 7.082031 36.21875 7.066406 40.476562 7.046875 C 44.691406 7.03125 44.308594 7.011719 45.308594 7.285156 C 45.792969 7.417969 46.703125 7.863281 47.019531 8.121094 C 47.421875 8.453125 48.070312 9.136719 48.257812 9.425781 C 48.460938 9.730469 48.875 10.542969 48.875 10.628906 C 48.875 10.65625 48.90625 10.75 48.945312 10.839844 C 49.113281 11.230469 49.246094 11.847656 49.316406 12.523438 C 49.421875 13.539062 49.359375 34.417969 49.25 34.960938 C 48.902344 36.703125 48.234375 37.941406 47.238281 38.6875 C 47.128906 38.765625 47.03125 38.84375 47.019531 38.859375 C 46.902344 38.980469 45.917969 39.492188 45.796875 39.496094 C 45.757812 39.496094 45.664062 39.527344 45.59375 39.5625 C 45.519531 39.601562 45.398438 39.644531 45.320312 39.664062 C 45.242188 39.679688 45.097656 39.761719 45 39.84375 L 44.820312 39.992188 L 44.820312 40.398438 C 44.820312 41.03125 44.660156 41.375 44.265625 41.589844 C 43.558594 41.972656 42.816406 41.414062 42.816406 40.492188 C 42.816406 39.90625 42.089844 39.660156 41.707031 40.109375 L 41.546875 40.304688 L 41.546875 43.058594 C 41.542969 45.707031 41.539062 45.820312 41.445312 46.0625 C 40.835938 47.617188 38.683594 47.570312 38.15625 45.992188 C 38.082031 45.777344 38.074219 45.417969 38.074219 42.871094 L 38.074219 39.996094 L 37.964844 39.921875 C 37.675781 39.734375 37.59375 39.902344 37.574219 40.703125 C 37.558594 41.328125 37.492188 41.484375 37.191406 41.585938 C 36.761719 41.726562 36.511719 41.410156 36.511719 40.714844 C 36.511719 39.902344 36.15625 39.578125 35.75 40.019531 L 35.628906 40.144531 L 35.628906 41.460938 C 35.628906 43.066406 35.605469 43.195312 35.1875 43.617188 C 34.429688 44.386719 33.378906 44.3125 32.726562 43.445312 C 32.480469 43.113281 32.453125 42.929688 32.453125 41.550781 C 32.453125 40.125 32.429688 40.003906 32.152344 39.90625 C 31.777344 39.78125 31.617188 39.96875 31.617188 40.546875 C 31.621094 41.449219 31 41.9375 30.363281 41.535156 C 30.054688 41.339844 30.039062 41.296875 30.007812 40.664062 C 29.972656 39.796875 30.167969 39.855469 27.273438 39.835938 C 19.894531 39.777344 19.53125 39.777344 19.464844 39.871094 C 19.417969 39.933594 19.402344 40.3125 19.402344 41.417969 C 19.402344 43.035156 19.390625 43.113281 19.101562 43.328125 C 18.699219 43.632812 18.230469 43.601562 17.859375 43.25 C 17.671875 43.070312 17.644531 42.832031 17.644531 41.328125 C 17.644531 40.289062 17.628906 39.890625 17.585938 39.847656 C 17.433594 39.695312 16.800781 39.886719 16.714844 40.113281 C 16.683594 40.1875 16.667969 41.671875 16.667969 43.800781 C 16.667969 46.996094 16.660156 47.390625 16.585938 47.609375 C 16.101562 49.042969 14.101562 49.152344 13.445312 47.777344 L 13.320312 47.507812 L 13.292969 43.855469 C 13.261719 39.726562 13.28125 39.886719 12.847656 39.886719 C 12.421875 39.886719 12.414062 39.929688 12.414062 42.90625 C 12.414062 45.453125 12.414062 45.492188 12.3125 45.640625 C 11.929688 46.195312 11.070312 46.09375 10.898438 45.476562 C 10.871094 45.371094 10.851562 44.253906 10.847656 42.703125 C 10.847656 39.824219 10.859375 39.925781 10.535156 39.925781 C 10.234375 39.925781 10.214844 39.972656 10.214844 40.664062 C 10.214844 42.019531 9.585938 42.828125 8.527344 42.828125 C 7.972656 42.828125 7.039062 42.253906 7.039062 41.914062 C 7.039062 41.890625 7.003906 41.808594 6.964844 41.734375 C 6.914062 41.636719 6.886719 41.378906 6.871094 40.886719 C 6.84375 39.875 6.910156 39.941406 5.742188 39.835938 C 2.992188 39.59375 1.183594 37.792969 0.671875 34.789062 C 0.5625 34.148438 0.582031 12.402344 0.695312 11.882812 C 0.84375 11.175781 0.890625 11 0.933594 10.953125 C 0.957031 10.929688 0.976562 10.875 0.976562 10.839844 C 0.976562 10.800781 1.007812 10.699219 1.046875 10.617188 C 1.085938 10.53125 1.171875 10.339844 1.238281 10.191406 C 1.304688 10.042969 1.4375 9.804688 1.535156 9.660156 C 1.632812 9.515625 1.710938 9.386719 1.710938 9.371094 C 1.710938 9.261719 2.472656 8.472656 2.878906 8.167969 C 3.398438 7.769531 4.121094 7.398438 4.515625 7.324219 C 4.613281 7.304688 4.707031 7.269531 4.71875 7.246094 C 4.734375 7.222656 4.804688 7.203125 4.878906 7.203125 C 4.949219 7.203125 5.128906 7.167969 5.277344 7.128906 C 5.503906 7.070312 6.160156 7.058594 9.414062 7.054688 C 12.398438 7.054688 13.296875 7.039062 13.355469 6.992188 C 13.398438 6.960938 13.507812 6.824219 13.601562 6.6875 C 14.027344 6.050781 14.097656 5.953125 14.125 5.929688 C 14.136719 5.914062 14.238281 5.773438 14.347656 5.609375 C 14.453125 5.449219 14.550781 5.304688 14.566406 5.292969 C 14.578125 5.277344 14.796875 4.957031 15.050781 4.582031 C 15.863281 3.367188 16.402344 2.742188 16.632812 2.742188 C 16.671875 2.742188 16.730469 2.710938 16.765625 2.671875 C 16.796875 2.628906 16.84375 2.597656 16.867188 2.597656 C 16.894531 2.597656 16.996094 2.546875 17.09375 2.484375 C 17.449219 2.269531 18.273438 1.984375 18.914062 1.855469 C 19.519531 1.734375 30.183594 1.675781 30.863281 1.789062 M 23.632812 11.792969 C 22.703125 11.914062 21.628906 12.167969 21.132812 12.378906 C 21.046875 12.417969 20.953125 12.445312 20.921875 12.445312 C 20.894531 12.445312 20.832031 12.46875 20.785156 12.492188 C 20.738281 12.519531 20.609375 12.578125 20.503906 12.621094 C 20.058594 12.8125 19.558594 13.058594 19.269531 13.238281 C 19.101562 13.339844 18.953125 13.425781 18.941406 13.425781 C 18.757812 13.425781 17.234375 14.65625 16.636719 15.289062 C 16.21875 15.734375 15.394531 16.75 15.394531 16.828125 C 15.394531 16.84375 15.308594 16.988281 15.199219 17.144531 C 15.007812 17.425781 14.457031 18.488281 14.328125 18.820312 C 14.289062 18.925781 14.246094 19.03125 14.203125 19.136719 C 14.167969 19.214844 14.121094 19.351562 14.101562 19.441406 C 14.085938 19.527344 14.046875 19.613281 14.023438 19.628906 C 14 19.644531 13.976562 19.714844 13.976562 19.789062 C 13.976562 19.863281 13.945312 19.96875 13.90625 20.019531 C 13.867188 20.070312 13.835938 20.167969 13.832031 20.234375 C 13.832031 20.296875 13.800781 20.464844 13.761719 20.601562 C 13.375 21.996094 13.375 24.871094 13.765625 25.933594 C 13.800781 26.035156 13.832031 26.171875 13.832031 26.238281 C 13.832031 26.304688 13.863281 26.429688 13.898438 26.519531 C 13.9375 26.609375 14.003906 26.800781 14.050781 26.949219 C 14.097656 27.097656 14.164062 27.289062 14.203125 27.375 C 14.242188 27.460938 14.273438 27.558594 14.273438 27.59375 C 14.273438 27.632812 14.308594 27.703125 14.347656 27.757812 C 14.386719 27.808594 14.417969 27.890625 14.417969 27.941406 C 14.417969 27.988281 14.441406 28.027344 14.46875 28.027344 C 14.492188 28.027344 14.515625 28.054688 14.515625 28.089844 C 14.515625 28.238281 15.183594 29.410156 15.5625 29.921875 C 15.644531 30.035156 15.757812 30.1875 15.8125 30.261719 C 16.207031 30.820312 17.09375 31.730469 17.765625 32.265625 C 17.902344 32.375 18.023438 32.472656 18.035156 32.488281 C 18.074219 32.53125 18.925781 33.097656 19.007812 33.136719 C 19.050781 33.15625 19.152344 33.21875 19.234375 33.269531 C 19.429688 33.394531 20.191406 33.773438 20.527344 33.910156 C 20.667969 33.964844 20.808594 34.027344 20.949219 34.085938 C 21.035156 34.125 21.128906 34.152344 21.160156 34.152344 C 21.1875 34.152344 21.25 34.175781 21.296875 34.199219 C 21.402344 34.253906 21.816406 34.378906 22.042969 34.421875 C 22.136719 34.4375 22.257812 34.472656 22.3125 34.496094 C 23.101562 34.851562 26.332031 34.855469 27.613281 34.5 C 28.332031 34.300781 28.53125 34.242188 28.605469 34.199219 C 28.652344 34.175781 28.722656 34.152344 28.761719 34.152344 C 28.800781 34.152344 28.917969 34.117188 29.019531 34.074219 C 29.144531 34.019531 29.269531 33.964844 29.394531 33.914062 C 30.152344 33.597656 31.554688 32.78125 32.023438 32.378906 C 32.117188 32.300781 32.21875 32.21875 32.316406 32.144531 C 32.878906 31.71875 34.40625 30 34.621094 29.546875 C 34.683594 29.421875 34.777344 29.265625 34.839844 29.191406 C 34.917969 29.097656 35.582031 27.789062 35.582031 27.726562 C 35.582031 27.6875 35.636719 27.546875 35.824219 27.121094 C 35.851562 27.066406 35.882812 26.945312 35.902344 26.851562 C 35.921875 26.757812 35.953125 26.660156 35.972656 26.632812 C 35.992188 26.605469 36.027344 26.488281 36.042969 26.375 C 36.0625 26.261719 36.097656 26.15625 36.125 26.140625 C 36.148438 26.125 36.167969 26.039062 36.167969 25.945312 C 36.167969 25.855469 36.191406 25.71875 36.222656 25.644531 C 36.417969 25.148438 36.515625 22.574219 36.375 21.683594 C 36.289062 21.144531 36.171875 20.597656 36.089844 20.335938 C 36.050781 20.214844 36.019531 20.066406 36.019531 20.007812 C 36.019531 19.949219 36.003906 19.886719 35.976562 19.875 C 35.953125 19.859375 35.921875 19.769531 35.902344 19.675781 C 35.886719 19.582031 35.839844 19.445312 35.800781 19.371094 C 35.761719 19.292969 35.730469 19.203125 35.726562 19.171875 C 35.726562 19.136719 35.707031 19.070312 35.683594 19.023438 C 35.65625 18.976562 35.597656 18.851562 35.554688 18.742188 C 35.234375 17.96875 34.503906 16.707031 34.132812 16.285156 C 34.074219 16.21875 34.019531 16.144531 33.96875 16.074219 C 33.738281 15.738281 32.3125 14.308594 32.203125 14.308594 C 32.179688 14.308594 32.160156 14.292969 32.160156 14.273438 C 32.160156 14.25 32.058594 14.167969 31.9375 14.085938 C 31.820312 14.007812 31.71875 13.925781 31.71875 13.902344 C 31.71875 13.882812 31.6875 13.867188 31.652344 13.867188 C 31.613281 13.867188 31.574219 13.851562 31.566406 13.828125 C 31.511719 13.699219 30.191406 12.953125 29.519531 12.667969 C 29.378906 12.609375 29.238281 12.546875 29.097656 12.488281 C 28.984375 12.4375 28.859375 12.398438 28.816406 12.398438 C 28.777344 12.398438 28.730469 12.375 28.714844 12.347656 C 28.699219 12.320312 28.636719 12.300781 28.578125 12.300781 C 28.519531 12.296875 28.414062 12.269531 28.34375 12.234375 C 28.277344 12.195312 28.125 12.152344 28.007812 12.132812 C 27.890625 12.113281 27.769531 12.082031 27.742188 12.066406 C 27.664062 12.015625 27.121094 11.910156 26.660156 11.859375 C 26.445312 11.832031 26.152344 11.789062 26.007812 11.761719 C 25.640625 11.691406 24.273438 11.707031 23.632812 11.792969 M 8.222656 12.8125 C 6.863281 13.15625 7.136719 15.191406 8.542969 15.191406 C 8.757812 15.191406 9.335938 14.976562 9.335938 14.898438 C 9.335938 14.882812 9.390625 14.808594 9.460938 14.734375 C 10.21875 13.914062 9.332031 12.53125 8.222656 12.8125 M 26.441406 14.230469 C 27.046875 14.339844 27.703125 14.511719 28.019531 14.644531 C 28.097656 14.675781 28.179688 14.699219 28.207031 14.699219 C 28.230469 14.699219 28.289062 14.722656 28.335938 14.746094 C 28.382812 14.773438 28.664062 14.90625 28.960938 15.046875 C 29.253906 15.183594 29.507812 15.316406 29.519531 15.335938 C 29.535156 15.355469 29.59375 15.386719 29.65625 15.40625 C 29.714844 15.425781 29.765625 15.460938 29.765625 15.488281 C 29.765625 15.511719 29.789062 15.535156 29.816406 15.535156 C 29.863281 15.535156 30.152344 15.71875 30.207031 15.785156 C 30.21875 15.800781 30.316406 15.871094 30.417969 15.941406 C 30.914062 16.28125 31.835938 17.175781 32.160156 17.644531 C 32.226562 17.734375 32.289062 17.824219 32.308594 17.835938 C 32.367188 17.886719 32.648438 18.332031 32.648438 18.378906 C 32.648438 18.402344 32.664062 18.425781 32.6875 18.425781 C 32.707031 18.425781 32.777344 18.527344 32.84375 18.65625 C 32.917969 18.792969 32.992188 18.929688 33.070312 19.0625 C 33.128906 19.160156 33.226562 19.359375 33.285156 19.503906 C 33.34375 19.652344 33.421875 19.839844 33.457031 19.917969 C 33.492188 20 33.558594 20.1875 33.605469 20.335938 C 33.652344 20.484375 33.710938 20.648438 33.730469 20.703125 C 33.773438 20.800781 33.808594 20.960938 33.953125 21.683594 C 34.105469 22.449219 34.046875 24.898438 33.867188 25.246094 C 33.84375 25.292969 33.820312 25.371094 33.820312 25.421875 C 33.820312 25.53125 33.644531 26.128906 33.546875 26.34375 C 33.511719 26.429688 33.480469 26.523438 33.480469 26.554688 C 33.480469 26.585938 33.460938 26.648438 33.4375 26.695312 C 33.414062 26.742188 33.28125 27.011719 33.140625 27.292969 C 32.855469 27.878906 32.820312 27.9375 32.636719 28.183594 C 32.5625 28.28125 32.503906 28.375 32.503906 28.394531 C 32.503906 28.558594 31.1875 30.003906 30.71875 30.355469 C 30.609375 30.4375 30.492188 30.53125 30.453125 30.570312 C 30.210938 30.800781 29.097656 31.445312 28.582031 31.65625 C 28.441406 31.714844 28.257812 31.792969 28.175781 31.828125 C 28.097656 31.863281 27.898438 31.929688 27.738281 31.976562 C 27.574219 32.023438 27.398438 32.078125 27.347656 32.101562 C 27.230469 32.148438 26.839844 32.226562 26.367188 32.292969 C 25 32.488281 24.886719 32.488281 23.535156 32.292969 C 23.164062 32.238281 22.648438 32.132812 22.53125 32.082031 C 22.492188 32.066406 22.292969 32.003906 22.09375 31.945312 C 21.890625 31.882812 21.691406 31.820312 21.652344 31.800781 C 21.613281 31.78125 21.46875 31.714844 21.335938 31.65625 C 21.046875 31.53125 20.566406 31.285156 20.355469 31.15625 C 20.277344 31.109375 20.175781 31.050781 20.136719 31.035156 C 19.777344 30.871094 18.613281 29.875 18.101562 29.292969 C 17.441406 28.546875 16.375 26.730469 16.375 26.355469 C 16.375 26.328125 16.34375 26.234375 16.308594 26.148438 C 16.191406 25.875 16.082031 25.496094 16.082031 25.378906 C 16.082031 25.320312 16.046875 25.15625 16.007812 25.019531 C 15.785156 24.230469 15.796875 22.34375 16.03125 21.339844 C 16.148438 20.839844 16.316406 20.277344 16.425781 20.015625 C 16.667969 19.4375 16.707031 19.351562 17.011719 18.765625 C 17.542969 17.746094 19.46875 15.679688 19.890625 15.679688 C 19.917969 15.679688 19.941406 15.664062 19.941406 15.644531 C 19.941406 15.574219 21.066406 14.945312 21.195312 14.945312 C 21.226562 14.945312 21.261719 14.925781 21.269531 14.90625 C 21.285156 14.867188 21.992188 14.59375 22.238281 14.53125 C 22.304688 14.511719 22.40625 14.480469 22.457031 14.460938 C 22.628906 14.390625 23.226562 14.265625 23.628906 14.210938 C 23.839844 14.183594 24.027344 14.148438 24.042969 14.132812 C 24.097656 14.078125 26.03125 14.15625 26.441406 14.230469 M 26.578125 15.738281 C 26 15.859375 26.0625 16.847656 26.648438 16.855469 C 26.71875 16.855469 26.789062 16.875 26.804688 16.898438 C 26.820312 16.921875 26.910156 16.957031 27.007812 16.976562 C 27.105469 16.996094 27.222656 17.03125 27.265625 17.054688 C 27.414062 17.132812 27.804688 17.296875 27.851562 17.296875 C 27.878906 17.296875 27.90625 17.3125 27.917969 17.335938 C 27.925781 17.355469 28.019531 17.414062 28.128906 17.46875 C 28.359375 17.582031 28.609375 17.746094 28.632812 17.800781 C 28.640625 17.820312 28.671875 17.835938 28.699219 17.835938 C 28.832031 17.835938 29.828125 18.773438 30.285156 19.328125 C 30.6875 19.816406 31.304688 19.628906 31.304688 19.019531 C 31.304688 18.574219 30.46875 17.601562 29.527344 16.953125 C 29.429688 16.886719 29.34375 16.816406 29.332031 16.796875 C 29.320312 16.773438 29.300781 16.757812 29.273438 16.757812 C 29.25 16.757812 29.136719 16.691406 29.015625 16.613281 C 28.648438 16.363281 27.597656 15.875 27.425781 15.875 C 27.378906 15.875 27.320312 15.855469 27.292969 15.832031 C 27.214844 15.753906 26.769531 15.695312 26.578125 15.738281 M 31.550781 21.058594 C 31.101562 21.503906 31.417969 22.441406 32.011719 22.441406 C 32.558594 22.441406 32.753906 21.960938 32.476562 21.285156 C 32.324219 20.910156 31.820312 20.789062 31.550781 21.058594 M 24.609375 22.628906 C 24.292969 22.824219 24.164062 23.152344 24.273438 23.480469 C 24.476562 24.0625 25.167969 24.183594 25.539062 23.695312 C 26.007812 23.082031 25.261719 22.230469 24.609375 22.628906 "/>
</g>
</svg>
