<?xml version="1.0" standalone="no"?>
<!DOCTYPE svg PUBLIC "-//W3C//DTD SVG 20010904//EN"
 "http://www.w3.org/TR/2001/REC-SVG-20010904/DTD/svg10.dtd">
<svg version="1.0" xmlns="http://www.w3.org/2000/svg"
 width="300.000000pt" height="293.000000pt" viewBox="0 0 300.000000 293.000000"
 preserveAspectRatio="xMidYMid meet">
<metadata>
Created by potrace 1.10, written by Peter Selinger 2001-2011
</metadata>
<g transform="translate(0.000000,293.000000) scale(0.100000,-0.100000)"
fill="#000000" stroke="none">
<path d="M1140 2821 c-53 -8 -136 -44 -166 -72 -12 -11 -54 -69 -95 -129 l-73
-108 -256 -4 c-252 -3 -256 -3 -311 -29 -72 -34 -134 -96 -168 -168 l-26 -56
0 -725 0 -725 28 -60 c53 -114 146 -182 266 -193 l66 -7 6 -59 c8 -69 36 -103
92 -113 32 -5 41 -1 72 30 31 31 35 41 35 85 0 51 13 73 32 54 6 -6 9 -74 9
-170 -2 -135 1 -162 14 -176 9 -9 24 -16 34 -16 37 0 41 19 41 186 0 131 3
164 15 174 8 7 22 10 30 6 13 -5 15 -39 15 -236 l0 -232 29 -29 c31 -31 83
-39 122 -19 47 26 49 46 49 430 0 233 -4 360 -10 360 -6 0 -10 -52 -11 -132
-1 -73 -2 -236 -3 -363 -1 -126 -6 -237 -11 -246 -27 -44 -102 -46 -130 -3
-18 27 -19 38 -4 28 8 -4 8 -1 1 12 -5 11 -10 97 -11 192 -2 135 1 172 11 172
10 0 10 2 -1 9 -7 5 -11 13 -7 19 8 14 -32 62 -53 62 -41 0 -49 -27 -50 -190
-1 -85 -6 -159 -11 -164 -15 -15 -31 5 -31 42 -3 223 -6 273 -17 284 -9 9 -12
99 -12 362 0 192 -3 347 -6 344 -3 -3 -5 -157 -6 -341 l0 -335 -24 -11 c-13
-6 -24 -19 -24 -30 0 -11 -6 -22 -12 -24 -10 -4 -10 -6 0 -6 6 -1 12 -11 11
-23 0 -22 -1 -22 -9 -3 -6 14 -9 15 -9 4 -1 -8 4 -20 9 -25 13 -13 -25 -49
-61 -57 -28 -7 -64 12 -64 35 -1 7 -6 12 -12 11 -6 -1 -9 14 -7 42 3 34 0 49
-15 64 -11 11 -18 21 -16 23 2 2 -16 2 -41 2 -54 -2 -109 14 -154 45 -44 30
-90 78 -82 85 3 3 0 6 -6 6 -6 0 -9 7 -5 17 4 11 3 14 -5 9 -12 -7 -28 22 -40
74 -10 44 -11 1372 0 1427 5 31 16 57 26 63 13 7 13 9 3 10 -11 0 -10 5 4 20
10 11 22 17 26 14 5 -3 6 2 3 10 -4 10 -1 16 7 16 7 0 10 3 6 6 -9 9 43 54 70
60 12 4 21 10 18 14 -3 4 2 11 11 14 10 4 13 2 8 -7 -4 -6 2 -3 14 7 20 18 38
19 195 18 l172 -1 2 -341 c1 -188 4 -344 7 -347 2 -3 5 21 5 53 -1 33 0 190 0
350 l1 291 85 -2 c46 -1 83 1 82 5 -1 4 13 24 31 44 18 20 30 36 26 36 -3 0 7
15 22 34 16 19 40 53 54 76 l25 42 3 -223 c1 -129 7 -228 12 -233 7 -7 10 77
10 240 l0 250 53 18 c28 9 61 19 72 21 11 2 22 4 25 6 6 2 108 6 238 7 60 1
102 6 102 12 0 11 -276 12 -350 1z"/>
<path d="M1504 2815 c3 -9 6 -102 6 -206 0 -118 4 -188 10 -184 5 3 9 83 9
188 l0 182 168 2 c102 1 172 -2 180 -8 7 -6 16 -8 20 -6 15 10 71 -21 108 -60
61 -63 72 -77 55 -69 -13 6 -12 5 0 -6 29 -24 50 -62 51 -93 1 -24 3 -25 6 -7
6 32 23 17 24 -21 0 -27 2 -29 9 -12 9 19 9 19 16 -2 3 -13 11 -23 18 -24 27
-1 205 -1 249 0 26 0 47 6 47 11 0 6 -55 10 -144 10 l-145 0 -76 109 c-130
189 -157 202 -429 209 -175 4 -188 3 -182 -13z"/>
<path d="M2490 1521 c0 -654 -3 -991 -10 -991 -6 0 -10 -64 -10 -172 -1 -186
-6 -206 -58 -222 -30 -10 -84 2 -76 16 4 6 2 8 -3 5 -18 -12 -24 40 -24 213 0
154 -2 169 -19 185 -19 17 -21 17 -39 1 -13 -12 -18 -28 -16 -51 2 -19 0 -37
-5 -40 -9 -5 -24 44 -16 52 3 3 -4 15 -15 27 -22 23 -49 28 -61 11 -5 -6 -11
-5 -18 5 -7 10 -10 -20 -10 -96 0 -108 -1 -112 -25 -128 -32 -21 -57 -20 -85
2 -20 16 -23 28 -24 104 -1 94 -20 132 -60 126 -21 -3 -56 -56 -49 -74 2 -7 0
-15 -5 -18 -19 -12 -37 5 -38 35 -2 53 -16 58 -161 60 -87 1 -133 6 -135 13
-2 6 -3 26 -3 44 1 17 -2 32 -7 32 -4 0 -8 -21 -8 -47 l0 -48 -174 3 -174 3
-10 -33 c-6 -18 -9 -50 -7 -70 2 -21 -1 -40 -5 -43 -5 -3 -5 -16 0 -29 7 -19
4 -28 -10 -41 -18 -16 -20 -16 -36 -1 -17 18 -18 29 -14 116 2 31 -2 66 -9 78
-12 23 -45 30 -56 12 -4 -6 5 -10 19 -10 l26 0 0 -100 c0 -94 1 -100 24 -115
19 -13 29 -14 45 -5 33 17 40 41 35 133 l-4 87 318 -2 317 -3 6 -43 c6 -44 20
-62 49 -62 26 0 40 22 40 61 0 30 5 39 21 44 32 10 39 -9 39 -107 0 -77 3 -90
24 -115 34 -39 95 -39 133 0 26 25 28 35 33 125 5 89 7 97 25 97 16 0 21 -8
23 -42 6 -80 59 -86 64 -6 2 35 7 48 18 48 13 0 15 -28 15 -188 l0 -189 33
-29 c46 -42 103 -41 143 2 l29 31 0 170 c0 98 4 178 10 189 20 36 70 17 70
-26 0 -34 28 -65 59 -65 36 0 52 19 56 66 4 44 6 46 69 69 100 36 171 132 196
260 8 43 10 254 8 730 l-3 670 -23 57 c-33 81 -97 149 -174 183 -52 24 -81 29
-165 33 l-103 5 0 -992z m237 948 c7 -1 10 -6 7 -11 -3 -4 3 -8 14 -8 10 0 28
-9 40 -20 12 -12 22 -18 22 -15 0 6 27 -22 63 -65 10 -11 15 -26 11 -32 -4 -6
-3 -8 3 -5 6 4 17 -11 26 -33 9 -25 11 -40 5 -40 -7 0 -7 -4 0 -13 14 -17 14
22 12 -740 -1 -669 -3 -705 -39 -735 -9 -8 -10 -10 -3 -7 21 11 -16 -55 -51
-92 -17 -17 -35 -29 -39 -27 -4 3 -8 1 -8 -4 0 -9 -50 -33 -73 -36 -20 -3 -56
-49 -53 -69 5 -38 -36 -61 -62 -35 -9 9 -9 15 1 27 10 12 9 13 -2 6 -11 -6
-13 -4 -8 7 3 10 -3 20 -19 28 -13 8 -24 20 -25 29 0 11 -2 12 -6 4 -2 -7 -9
-13 -14 -13 -6 0 -7 5 -4 10 3 6 2 10 -4 10 -7 0 -11 298 -11 945 l0 944 102
-4 c57 -2 108 -5 115 -6z"/>
<path d="M2114 2360 c0 -58 1 -81 3 -52 2 28 2 76 0 105 -2 28 -3 5 -3 -53z"/>
<path d="M1315 2385 c-219 -50 -411 -181 -534 -365 -385 -576 27 -1346 719
-1342 611 3 1021 607 801 1179 -92 236 -291 423 -541 505 -86 28 -109 31 -240
34 -98 2 -164 -1 -205 -11z m302 -11 c29 -4 51 -9 49 -13 -2 -3 12 -6 32 -7
21 -1 51 -7 67 -14 17 -7 36 -14 43 -16 8 -1 30 -14 51 -27 20 -14 59 -34 85
-46 26 -12 49 -28 52 -35 3 -8 15 -16 26 -19 11 -3 17 -10 13 -17 -3 -6 -3 -9
2 -8 15 5 75 -57 137 -142 52 -72 93 -148 126 -235 40 -103 46 -332 12 -463
-18 -69 -91 -234 -112 -252 -3 -3 -13 -16 -21 -30 -27 -42 -139 -166 -139
-154 0 5 -5 1 -62 -47 -21 -17 -38 -28 -38 -25 0 4 -15 -4 -32 -17 -83 -62
-293 -111 -433 -102 -133 10 -194 18 -188 28 3 6 1 7 -6 3 -6 -4 -25 0 -43 8
-17 9 -36 16 -43 16 -16 0 -139 62 -143 72 -2 4 -9 8 -16 8 -7 0 -21 9 -31 20
-10 11 -22 20 -28 20 -15 0 -139 132 -179 191 -40 59 -95 174 -110 229 -15 58
-35 202 -32 243 6 102 17 197 23 197 4 0 8 12 9 28 2 29 5 37 48 127 16 33 32
62 37 63 4 2 5 7 2 12 -2 4 4 15 15 25 11 10 20 24 20 31 0 7 10 20 22 28 12
9 18 16 13 16 -6 0 -6 3 0 8 6 4 21 20 33 36 12 16 22 25 22 21 0 -5 14 7 30
25 17 18 30 29 30 24 0 -5 13 5 28 22 15 17 33 29 41 26 8 -2 11 0 8 5 -4 6
11 15 32 22 21 6 44 18 51 26 7 8 30 20 52 26 22 6 52 15 67 21 14 6 34 10 44
9 9 -1 17 2 17 8 0 5 8 10 18 10 25 0 116 13 120 16 7 6 126 5 179 -1z"/>
<path d="M1277 2225 c-116 -38 -187 -80 -271 -160 -101 -96 -170 -207 -204
-330 -29 -104 -30 -277 -2 -381 20 -75 70 -184 97 -212 7 -7 13 -18 13 -23 0
-16 167 -174 207 -194 21 -11 40 -23 43 -26 16 -19 144 -62 154 -51 3 3 6 0 6
-5 0 -27 204 -40 300 -19 79 16 139 36 182 60 24 13 61 33 84 45 85 44 219
201 271 319 85 193 82 411 -9 601 -37 78 -73 129 -141 200 -54 56 -155 127
-194 137 -13 4 -23 9 -23 13 0 7 -62 27 -158 51 -24 6 -92 10 -151 9 -90 -2
-124 -8 -204 -34z m371 -10 c132 -27 254 -97 352 -201 201 -212 246 -518 117
-784 -33 -69 -58 -102 -132 -175 -73 -74 -106 -99 -175 -132 -128 -63 -191
-76 -340 -71 -108 4 -136 9 -206 35 -213 80 -376 254 -435 466 -29 104 -31
260 -5 357 55 204 195 370 388 460 123 58 293 75 436 45z"/>
<path d="M1360 2066 c-156 -44 -282 -148 -352 -291 -101 -204 -57 -455 107
-619 107 -107 229 -156 386 -156 156 0 288 57 393 171 201 217 195 539 -13
748 -72 73 -155 122 -246 146 -70 18 -212 18 -275 1z m228 -27 c102 -14 192
-60 274 -140 54 -51 114 -145 121 -185 1 -11 6 -24 9 -29 4 -6 3 -16 -1 -23
-5 -9 -12 -5 -21 13 -16 30 -52 42 -85 27 -29 -14 -41 -52 -28 -95 7 -25 17
-35 47 -45 34 -11 41 -10 57 4 11 10 19 23 19 31 0 7 7 13 15 13 37 0 9 -212
-41 -312 -41 -82 -184 -218 -229 -218 -8 0 -17 -5 -20 -10 -4 -6 -11 -8 -16
-5 -5 4 -9 1 -9 -6 0 -7 -2 -10 -6 -7 -3 3 -26 -1 -51 -8 -25 -8 -80 -14 -122
-14 -65 0 -94 4 -176 24 -29 7 -95 39 -95 46 0 5 -10 12 -21 15 -38 13 -109
87 -151 159 -60 103 -75 168 -67 303 6 102 10 118 43 186 51 103 131 184 230
231 42 21 86 38 97 39 10 1 19 4 19 7 0 11 128 10 208 -1z m368 -396 c8 -30
-5 -56 -31 -62 -24 -4 -45 25 -45 60 0 55 63 56 76 2z"/>
<path d="M1564 2005 c-13 -13 -24 -35 -24 -48 0 -25 33 -67 53 -67 13 0 99
-44 125 -64 9 -6 36 -32 62 -58 52 -54 75 -59 108 -24 32 34 28 67 -17 121
-34 41 -151 135 -159 127 -1 -1 -15 4 -30 11 -55 28 -91 29 -118 2z m132 -41
c64 -30 130 -82 166 -129 28 -39 28 -59 -3 -76 -16 -8 -28 0 -76 47 -52 51
-157 114 -190 114 -24 0 -33 35 -16 59 18 26 37 24 119 -15z"/>
<path d="M1395 1862 c-137 -48 -223 -160 -233 -305 -4 -58 -1 -78 22 -135 26
-64 101 -162 124 -162 6 0 12 -5 14 -10 2 -6 26 -19 54 -30 80 -30 202 -24
272 14 28 16 52 32 52 36 0 4 12 12 26 18 14 7 23 16 20 21 -3 5 0 11 7 14 7
2 26 29 42 58 28 50 30 61 30 159 0 97 -2 109 -28 155 -41 72 -83 112 -158
149 -79 40 -164 46 -244 18z m225 -25 c148 -63 229 -231 185 -383 -44 -152
-172 -242 -329 -232 -181 12 -306 157 -294 342 9 137 103 253 233 287 43 12
164 3 205 -14z"/>
<path d="M1454 1592 c-31 -26 -38 -57 -19 -86 28 -42 72 -49 105 -18 45 44 42
89 -7 111 -33 15 -54 13 -79 -7z m67 -12 c29 -16 26 -67 -6 -82 -21 -9 -28 -8
-45 7 -24 22 -25 42 -3 67 19 21 27 22 54 8z"/>
<path d="M2111 2214 c0 -11 3 -14 6 -6 3 7 2 16 -1 19 -3 4 -6 -2 -5 -13z"/>
<path d="M486 2190 c-16 -5 -33 -7 -38 -4 -5 3 -8 2 -7 -3 1 -4 -3 -21 -10
-38 -7 -17 -10 -51 -7 -79 4 -45 16 -76 16 -45 0 12 2 12 9 0 5 -7 27 -17 50
-21 38 -7 43 -5 83 33 24 22 35 34 25 27 -17 -12 -17 -12 -6 13 9 20 9 33 -1
57 -7 16 -17 30 -22 30 -5 0 -6 5 -3 10 6 9 -10 14 -42 13 -7 -1 -10 3 -7 8 6
11 -1 10 -40 -1z m63 -30 c10 -5 24 -22 30 -39 31 -73 -65 -137 -119 -79 -56
61 16 157 89 118z"/>
<path d="M610 2191 c0 -6 4 -13 10 -16 6 -3 7 1 4 9 -7 18 -14 21 -14 7z"/>
<path d="M801 2127 c-8 -10 -7 -14 2 -14 8 0 14 6 14 14 0 7 -1 13 -2 13 -2 0
-8 -6 -14 -13z"/>
<path d="M641 1274 c0 -11 3 -14 6 -6 3 7 2 16 -1 19 -3 4 -6 -2 -5 -13z"/>
<path d="M2114 705 c0 -71 1 -99 3 -62 2 37 2 96 0 130 -2 34 -3 4 -3 -68z"/>
</g>
</svg>
