<?xml version="1.0" standalone="no"?>
<!DOCTYPE svg PUBLIC "-//W3C//DTD SVG 20010904//EN"
 "http://www.w3.org/TR/2001/REC-SVG-20010904/DTD/svg10.dtd">
<svg version="1.0" xmlns="http://www.w3.org/2000/svg"
 width="87.000000pt" height="67.000000pt" viewBox="0 0 87.000000 67.000000"
 preserveAspectRatio="xMidYMid meet">
<metadata>
Created by potrace 1.10, written by Peter Selinger 2001-2011
</metadata>
<g transform="translate(0.000000,67.000000) scale(0.100000,-0.100000)"
fill="#000000" stroke="none">
<path d="M170 660 c0 -5 -10 -10 -22 -11 -13 0 -17 -3 -10 -6 9 -3 5 -12 -13
-28 -14 -13 -25 -27 -25 -31 0 -4 -9 -15 -21 -25 -11 -9 -20 -20 -20 -23 0 -3
-7 -23 -16 -43 -10 -23 -17 -67 -17 -113 -1 -41 -5 -78 -11 -82 -6 -5 -5 -8 3
-8 6 0 12 -7 12 -15 0 -31 64 -140 106 -181 24 -23 59 -48 78 -55 19 -7 33
-16 31 -20 -3 -4 24 -10 60 -14 76 -8 305 -4 300 6 -3 3 14 12 37 18 22 7 50
21 61 31 11 11 24 17 29 14 5 -3 7 -2 6 3 -1 4 12 24 30 43 18 19 35 45 38 57
4 13 9 23 13 23 13 0 40 103 41 155 1 28 -3 65 -8 83 -6 18 -11 35 -11 37 -4
28 -55 108 -94 147 l-48 48 -67 -1 c-58 -1 -63 -2 -35 -10 45 -13 115 -85 149
-154 25 -52 29 -71 29 -145 -1 -72 -5 -94 -28 -142 -33 -68 -87 -124 -159
-163 -51 -29 -58 -30 -168 -29 -100 1 -122 5 -172 27 -68 30 -134 94 -168 162
-21 43 -25 63 -25 145 1 83 4 101 27 146 15 28 39 65 53 82 31 37 90 75 108
69 6 -2 -2 -11 -20 -20 -43 -23 -100 -99 -119 -161 -18 -57 -27 -196 -13 -196
5 0 9 -11 9 -24 0 -14 5 -28 10 -31 6 -4 8 -11 5 -16 -4 -5 -2 -9 2 -9 5 0 17
-16 28 -35 17 -33 88 -95 108 -95 5 0 -11 15 -35 33 -29 22 -54 55 -78 101
-32 62 -35 77 -35 150 1 88 3 101 29 160 23 51 106 133 147 145 30 8 25 9 -38
10 -43 1 -73 -3 -73 -9z m528 -30 c52 -37 107 -120 123 -183 15 -62 6 -169
-19 -227 -18 -42 -61 -95 -107 -133 -27 -21 -99 -51 -90 -38 3 6 13 11 20 11
8 0 41 26 74 58 51 50 62 68 80 128 23 79 27 143 12 193 -6 19 -8 39 -4 45 3
6 3 8 -2 4 -4 -4 -18 14 -30 40 -13 28 -43 66 -71 90 -56 48 -47 56 14 12z"/>
<path d="M0 656 c0 -2 13 -6 29 -8 17 -2 28 -1 25 4 -5 8 -54 12 -54 4z"/>
<path d="M103 636 c-9 -11 -9 -15 0 -19 7 -3 14 3 14 14 2 22 2 22 -14 5z"/>
<path d="M555 530 c-3 -6 1 -7 9 -4 18 7 21 14 7 14 -6 0 -13 -4 -16 -10z"/>
<path d="M362 503 c-75 -37 -105 -144 -62 -221 60 -107 219 -108 279 -2 43 76
14 182 -59 221 -43 23 -114 24 -158 2z m130 -17 c7 4 8 3 4 -4 -4 -8 0 -12 12
-12 10 0 27 -9 37 -20 10 -11 15 -20 11 -20 -3 0 0 -12 7 -27 15 -29 13 -79
-4 -99 -5 -6 -8 -13 -6 -15 1 -2 0 -3 -2 -2 -6 4 -29 -22 -25 -29 6 -9 -62
-28 -98 -28 -33 0 -79 20 -72 31 3 5 -3 9 -13 9 -15 0 -16 2 -3 10 14 9 7 14
-13 11 -5 -1 -6 3 -3 8 4 5 2 13 -4 16 -6 4 -10 30 -8 60 1 29 6 51 10 49 5
-3 8 1 8 9 0 32 98 72 133 55 9 -5 23 -6 29 -2z"/>
<path d="M520 456 c0 -2 8 -10 18 -17 15 -13 16 -12 3 4 -13 16 -21 21 -21 13z"/>
</g>
</svg>
