<?xml version="1.0" standalone="no"?>
<!DOCTYPE svg PUBLIC "-//W3C//DTD SVG 20010904//EN"
 "http://www.w3.org/TR/2001/REC-SVG-20010904/DTD/svg10.dtd">
<svg version="1.0" xmlns="http://www.w3.org/2000/svg"
 width="164.000000pt" height="90.000000pt" viewBox="0 0 164.000000 90.000000"
 preserveAspectRatio="xMidYMid meet">
<metadata>
Created by potrace 1.10, written by Peter Selinger 2001-2011
</metadata>
<g transform="translate(0.000000,90.000000) scale(0.100000,-0.100000)"
fill="#000000" stroke="none">
<path d="M971 881 c-11 -11 -21 -17 -24 -15 -2 3 -5 -181 -5 -408 0 -347 2
-417 14 -436 14 -21 21 -23 119 -21 58 1 103 5 100 9 -3 4 2 10 10 14 12 4 15
26 15 111 0 67 4 105 11 105 5 0 7 6 3 13 -6 9 -5 9 8 0 8 -7 18 -10 22 -6 4
4 4 0 0 -10 -3 -10 -1 -17 5 -17 6 0 11 -7 11 -16 0 -9 5 -12 11 -8 8 5 10 -1
7 -19 -3 -15 -1 -24 4 -21 12 7 38 -28 31 -40 -4 -5 -1 -6 5 -2 7 4 12 1 12
-8 0 -9 5 -16 10 -16 6 0 10 -7 10 -15 0 -8 14 -29 31 -47 17 -18 27 -26 23
-18 -7 13 -5 13 8 2 11 -9 46 -12 119 -10 l104 3 3 32 c3 35 -21 91 -44 100
-7 3 -14 11 -14 18 0 7 -7 15 -15 19 -8 3 -15 10 -15 15 0 13 -60 102 -80 119
-8 8 -9 11 -3 7 26 -13 0 31 -41 69 -22 21 -35 35 -28 32 7 -5 12 -1 12 8 0
24 105 129 132 132 13 1 25 3 27 3 2 1 -3 9 -10 19 -7 9 -10 14 -6 11 9 -8 72
49 73 65 0 6 -6 18 -14 28 -11 13 -34 16 -133 17 -69 0 -119 -4 -119 -9 0 -6
-6 -10 -12 -10 -7 0 -42 -30 -77 -66 -35 -36 -65 -63 -68 -61 -2 3 -4 72 -4
154 1 81 -3 154 -7 161 -13 19 -69 32 -139 32 -49 0 -67 -4 -82 -19z m199
-211 l0 -195 98 98 97 97 122 0 122 0 -82 -77 c-45 -43 -101 -96 -124 -118
-24 -22 -43 -43 -43 -46 0 -4 61 -93 135 -198 74 -106 135 -194 135 -197 0 -2
-49 -4 -109 -4 l-108 0 -93 139 -92 140 -29 -34 c-28 -32 -29 -36 -29 -139 l0
-106 -100 0 -100 0 0 418 0 417 100 0 100 0 0 -195z m290 -330 c0 -5 -2 -10
-4 -10 -3 0 -8 5 -11 10 -3 6 -1 10 4 10 6 0 11 -4 11 -10z"/>
<path d="M1326 568 c3 -5 10 -6 15 -3 13 9 11 12 -6 12 -8 0 -12 -4 -9 -9z"/>
<path d="M1280 298 c0 -3 6 -11 14 -17 10 -9 17 -7 27 6 12 16 12 17 -2 6 -12
-10 -18 -10 -27 -1 -7 7 -12 9 -12 6z"/>
<path d="M32 883 c-6 -2 -10 -9 -6 -14 3 -5 1 -9 -3 -9 -12 0 -8 -162 4 -184
8 -14 28 -19 96 -23 l87 -6 0 -306 1 -306 23 -17 c17 -13 45 -16 124 -16 56 0
100 4 97 8 -3 4 2 13 10 20 12 10 14 59 12 316 l-2 304 50 1 c28 1 60 1 72 2
12 0 20 3 18 8 -3 4 -1 10 5 14 5 3 17 22 26 41 l17 35 20 -45 c11 -25 26 -46
34 -46 8 0 11 -5 7 -12 -5 -8 -2 -9 9 -5 11 4 17 1 17 -7 0 -8 -8 -12 -23 -9
-15 3 -30 -3 -42 -17 -19 -21 -20 -40 -23 -280 -3 -215 -1 -264 12 -295 l16
-37 103 4 c80 2 107 7 120 20 15 14 16 49 16 293 0 256 -2 279 -19 297 -10 11
-23 17 -29 14 -5 -4 -12 -2 -16 3 -3 6 -13 7 -23 4 -9 -3 -4 5 13 18 16 13 31
22 33 19 7 -10 41 67 38 86 -2 10 1 28 7 39 5 11 6 17 2 13 -11 -10 -37 11
-29 23 3 5 0 8 -8 7 -7 -2 -12 2 -11 8 4 19 -73 47 -112 41 -37 -6 -89 -40
-78 -51 3 -3 1 -6 -5 -6 -7 0 -12 8 -12 18 0 41 -12 42 -329 41 -169 0 -312
-3 -319 -6z m601 -112 l-28 -92 -80 2 -80 2 0 -326 0 -327 -103 0 -103 0 1
326 1 327 -100 -2 -101 -2 0 90 0 91 308 2 c169 2 308 2 310 2 2 -1 -10 -43
-25 -93z m234 54 c32 -32 35 -40 30 -73 -4 -24 -17 -47 -38 -66 -27 -24 -38
-27 -73 -23 -84 12 -117 108 -57 168 43 43 92 40 138 -6z m33 -510 l0 -285
-100 0 -100 0 0 285 0 285 100 0 100 0 0 -285z"/>
<path d="M865 650 c-3 -6 1 -7 9 -4 18 7 21 14 7 14 -6 0 -13 -4 -16 -10z"/>
</g>
</svg>
